<svg id="Capa_1" enable-background="new 0 0 511.79 511.79" height="512" viewBox="0 0 511.79 511.79" width="512" xmlns="http://www.w3.org/2000/svg"><g><g><g><path d="m491.708 368.112h-12.461c2.529-4.384 3.984-9.463 3.984-14.877v-263.373c0-16.475-13.403-29.877-29.878-29.877h-70.446c-4.143 0-7.5 3.358-7.5 7.5s3.357 7.5 7.5 7.5h70.446c8.204 0 14.878 6.674 14.878 14.877v263.373c0 8.204-6.674 14.877-14.878 14.877h-394.916c-8.204 0-14.878-6.674-14.878-14.877v-263.373c0-8.204 6.674-14.877 14.878-14.877h289.46c4.143 0 7.5-3.358 7.5-7.5s-3.357-7.5-7.5-7.5h-289.46c-16.475 0-29.878 13.403-29.878 29.877v263.373c0 5.415 1.455 10.493 3.984 14.877h-12.461c-11.073 0-20.082 9.009-20.082 20.082 0 35.075 28.536 63.611 63.611 63.611h32.634c4.143 0 7.5-3.358 7.5-7.5s-3.357-7.5-7.5-7.5h-32.634c-26.804.001-48.611-21.806-48.611-48.611 0-2.802 2.279-5.082 5.082-5.082h182.325v7.302c0 12.331 10.031 22.362 22.362 22.362h62.251c12.331 0 22.362-10.032 22.362-22.362v-7.302h182.325c2.803 0 5.082 2.28 5.082 5.082 0 26.804-21.807 48.611-48.611 48.611h-317.282c-4.143 0-7.5 3.358-7.5 7.5s3.357 7.5 7.5 7.5h317.282c35.075 0 63.611-28.536 63.611-63.611.001-11.073-9.008-20.082-20.081-20.082zm-197.325 22.302c0 4.06-3.303 7.362-7.362 7.362h-62.251c-4.06 0-7.362-3.303-7.362-7.362v-7.302h76.976v7.302z"/><circle cx="110.55" cy="123.63" r="7.5"/><circle cx="140.273" cy="123.63" r="7.5"/><circle cx="169.996" cy="123.63" r="7.5"/><path d="m60.755 103.17.002 236.755c0 8.768 7.133 15.901 15.9 15.901h358.476c8.768 0 15.9-7.133 15.9-15.901l.002-236.755c0-8.767-7.133-15.9-15.9-15.9h-358.48c-8.767 0-15.9 7.133-15.9 15.9zm375.278 236.755c0 .497-.404.901-.9.901h-358.476c-.496 0-.9-.404-.9-.901v-179.935h102.018c-13.384 16.948-21.382 38.336-21.382 61.558 0 54.865 44.636 99.501 99.501 99.501s99.502-44.636 99.502-99.501c0-23.222-7.998-44.61-21.382-61.558h102.019zm-180.138-202.878c46.595 0 84.502 37.907 84.502 84.501s-37.907 84.501-84.502 84.501c-46.594 0-84.501-37.907-84.501-84.501s37.907-84.501 84.501-84.501zm179.238-34.776c.496 0 .9.404.9.901v41.819h-116.654c-17.24-14.321-39.374-22.943-63.485-22.943s-46.245 8.623-63.484 22.943h-116.653v-41.819c0-.497.404-.901.9-.901z"/><path d="m221.967 187.22c8.671-8.467 20.122-13.131 32.244-13.131 23.833 0 43.503 18.158 45.907 41.365l-2.519-3.314c-2.506-3.297-7.21-3.94-10.51-1.433-3.298 2.506-3.939 7.211-1.434 10.509l15.105 19.876c1.419 1.866 3.628 2.962 5.972 2.962s4.553-1.096 5.972-2.962l15.104-19.876c2.506-3.298 1.864-8.003-1.434-10.509-3.299-2.508-8.004-1.864-10.51 1.433l-.901 1.186c-3.449-30.474-29.373-54.237-60.754-54.237-16.062 0-31.234 6.179-42.725 17.399-2.963 2.894-3.02 7.642-.126 10.605 2.895 2.963 7.642 3.022 10.609.127z"/><path d="m257.579 284.007c16.062 0 31.234-6.179 42.725-17.399 2.963-2.894 3.02-7.642.126-10.605-2.894-2.962-7.642-3.021-10.606-.126-8.671 8.467-20.122 13.131-32.244 13.131-23.833 0-43.503-18.158-45.907-41.365l2.519 3.314c2.506 3.297 7.21 3.94 10.51 1.433 3.298-2.506 3.939-7.211 1.434-10.509l-15.105-19.876c-1.419-1.866-3.628-2.962-5.972-2.962s-4.553 1.096-5.972 2.962l-15.107 19.875c-2.506 3.298-1.864 8.003 1.434 10.509 1.356 1.031 2.951 1.529 4.532 1.529 2.264 0 4.502-1.021 5.978-2.962l.901-1.186c3.449 30.475 29.373 54.237 60.754 54.237z"/></g></g></g></svg>