<?xml version="1.0" encoding="UTF-8" standalone="no"?>
<svg
   id="Capa_1"
   enable-background="new 0 0 508.631 508.631"
   height="512"
   viewBox="0 0 508.631 508.631"
   width="512"
   version="1.1"
   sodipodi:docname="blueprint.svg"
   inkscape:version="1.3.2 (091e20e, 2023-11-25)"
   xmlns:inkscape="http://www.inkscape.org/namespaces/inkscape"
   xmlns:sodipodi="http://sodipodi.sourceforge.net/DTD/sodipodi-0.dtd"
   xmlns="http://www.w3.org/2000/svg"
   xmlns:svg="http://www.w3.org/2000/svg">
  <defs
     id="defs9" />
  <sodipodi:namedview
     id="namedview9"
     pagecolor="#ffffff"
     bordercolor="#000000"
     borderopacity="0.25"
     inkscape:showpageshadow="2"
     inkscape:pageopacity="0.0"
     inkscape:pagecheckerboard="0"
     inkscape:deskcolor="#d1d1d1"
     inkscape:zoom="0.4609375"
     inkscape:cx="256"
     inkscape:cy="254.91525"
     inkscape:window-width="1512"
     inkscape:window-height="916"
     inkscape:window-x="0"
     inkscape:window-y="38"
     inkscape:window-maximized="1"
     inkscape:current-layer="Capa_1" />
  <g
     id="g9"
     style="fill:#007bff;fill-opacity:1">
    <path
       d="m200.309 451.867h-132.809c-28.949 0-52.5-23.551-52.5-52.5 0-.73.049-3.406.086-4.107 1.611-30.235 26.613-53.919 56.92-53.919h26.095c4.142 0 7.5-3.358 7.5-7.5v-188.04h124.708c4.142 0 7.5-3.358 7.5-7.5s-3.358-7.5-7.5-7.5h-124.708v-57.005c0-4.142-3.358-7.5-7.5-7.5h-26.095c-39.704 0-72.006 32.302-72.006 72.006v256.56 4.506c0 37.22 30.28 67.5 67.5 67.5h132.809c4.142 0 7.5-3.358 7.5-7.5 0-4.143-3.358-7.501-7.5-7.501zm-185.309-313.565c0-31.433 25.573-57.005 57.006-57.005h18.595v245.045h-18.595c-23.127 0-43.807 10.918-57.006 27.987z"
       id="path1"
       style="fill:#007bff;fill-opacity:1" />
    <path
       d="m498.819 130.802h-238.51c-4.142 0-7.5 3.358-7.5 7.5s3.358 7.5 7.5 7.5h231.011v306.065h-261.011c-4.142 0-7.5 3.358-7.5 7.5s3.358 7.5 7.5 7.5h268.511c4.142 0 7.5-3.358 7.5-7.5v-321.065c-.001-4.142-3.359-7.5-7.501-7.5z"
       id="path2"
       style="fill:#007bff;fill-opacity:1" />
    <path
       d="m463.878 379.123h-328.375c-4.142 0-7.5 3.358-7.5 7.5v35.242c0 4.142 3.358 7.5 7.5 7.5h328.375c4.142 0 7.5-3.358 7.5-7.5v-35.242c0-4.143-3.358-7.5-7.5-7.5zm-7.5 35.241h-313.375v-20.242h313.375z"
       id="path3"
       style="fill:#007bff;fill-opacity:1" />
    <path
       d="m135.503 210.776c-4.142 0-7.5 3.358-7.5 7.5v139.752c0 4.142 3.358 7.5 7.5 7.5h326.628c4.142 0 7.5-3.358 7.5-7.5v-139.752c0-4.142-3.358-7.5-7.5-7.5zm164.542 70.268c-.359-.053-.723-.089-1.097-.089h-70.151v-55.178h71.248zm-86.248-55.268v55.178h-70.793v-55.178zm-70.794 70.179h78.293c.077 0 .151-.009.227-.011.076.002.15.011.227.011h77.197c.374 0 .738-.036 1.097-.089v54.663h-157.041zm311.629 54.574h-139.587v-124.753h139.586v124.753z"
       id="path4"
       style="fill:#007bff;fill-opacity:1" />
    <path
       d="m281.891 175.054h-148.913c-4.142 0-7.5 3.358-7.5 7.5s3.358 7.5 7.5 7.5h148.913c4.142 0 7.5-3.358 7.5-7.5s-3.358-7.5-7.5-7.5z"
       id="path5"
       style="fill:#007bff;fill-opacity:1" />
    <path
       d="m347.339 190.054c4.142 0 7.5-3.358 7.5-7.5s-3.358-7.5-7.5-7.5h-19.661c-4.142 0-7.5 3.358-7.5 7.5s3.358 7.5 7.5 7.5z"
       id="path6"
       style="fill:#007bff;fill-opacity:1" />
    <path
       d="m403.147 190.054c4.142 0 7.5-3.358 7.5-7.5s-3.358-7.5-7.5-7.5h-19.661c-4.142 0-7.5 3.358-7.5 7.5s3.358 7.5 7.5 7.5z"
       id="path7"
       style="fill:#007bff;fill-opacity:1" />
    <path
       d="m458.955 190.054c4.142 0 7.5-3.358 7.5-7.5s-3.358-7.5-7.5-7.5h-19.661c-4.142 0-7.5 3.358-7.5 7.5s3.358 7.5 7.5 7.5z"
       id="path8"
       style="fill:#007bff;fill-opacity:1" />
    <path
       d="m131.731 82.699c.21.075.424.141.64.197 0 0 72.452 18.783 73.3 18.783h.001.001 273c16.519 0 29.957-13.439 29.957-29.958s-13.438-29.957-29.957-29.957h-273c-.166 0-73.303 18.783-73.303 18.783-.216.056-.429.122-.64.197-4.626 1.654-7.734 6.065-7.734 10.977.002 4.913 3.109 9.324 7.735 10.978zm361.9-10.977c0 8.248-6.709 14.958-14.957 14.958h-20.423v-29.916h20.423c8.248 0 14.957 6.71 14.957 14.958zm-50.38-7.959h-88.086c-4.142 0-7.5 3.358-7.5 7.5s3.358 7.5 7.5 7.5h88.086v7.916h-230.077v-29.915h230.077zm-245.077 20.72-14.105-3.662v-18.199l14.105-3.662zm-29.106-17.966v10.41l-20.047-5.205z"
       id="path9"
       style="fill:#007bff;fill-opacity:1" />
  </g>
</svg>
