<?xml version="1.0" encoding="UTF-8" standalone="no"?>
<svg
   id="Capa_1"
   enable-background="new 0 0 512 512"
   height="512"
   viewBox="0 0 512 512"
   width="512"
   version="1.1"
   sodipodi:docname="code_refinement.svg"
   inkscape:version="1.3.2 (091e20e, 2023-11-25)"
   xmlns:inkscape="http://www.inkscape.org/namespaces/inkscape"
   xmlns:sodipodi="http://sodipodi.sourceforge.net/DTD/sodipodi-0.dtd"
   xmlns="http://www.w3.org/2000/svg"
   xmlns:svg="http://www.w3.org/2000/svg">
  <defs
     id="defs11" />
  <sodipodi:namedview
     id="namedview11"
     pagecolor="#ffffff"
     bordercolor="#000000"
     borderopacity="0.25"
     inkscape:showpageshadow="2"
     inkscape:pageopacity="0.0"
     inkscape:pagecheckerboard="0"
     inkscape:deskcolor="#d1d1d1"
     inkscape:zoom="0.4609375"
     inkscape:cx="256"
     inkscape:cy="254.91525"
     inkscape:window-width="1512"
     inkscape:window-height="916"
     inkscape:window-x="0"
     inkscape:window-y="38"
     inkscape:window-maximized="1"
     inkscape:current-layer="Capa_1" />
  <g
     id="g11"
     style="fill:#007bff;fill-opacity:1">
    <g
       id="g10"
       style="fill:#007bff;fill-opacity:1">
      <path
         d="m429.75 216.17h-14.73v-38.25c0-4.142-3.357-7.5-7.5-7.5s-7.5 3.358-7.5 7.5v38.25h-288.04v-188.47c0-7.003 5.697-12.7 12.7-12.7h209.83c.289 0 .577.023.864.044v42.965c0 11.934 9.709 21.642 21.643 21.642h42.961c.019.289.042.577.042.87v62.4c0 4.142 3.357 7.5 7.5 7.5s7.5-3.358 7.5-7.5v-62.4c0-7.408-2.879-14.366-8.106-19.594l-52.82-52.81c-5.159-5.159-12.297-8.117-19.584-8.117h-209.83c-15.274 0-27.7 12.426-27.7 27.7v188.47h-14.73c-8.591 0-15.58 6.994-15.58 15.59v16.16c0 8.591 6.989 15.58 15.58 15.58h4.62v15.61c0 8.034 3.483 15.662 9.555 20.925l126.239 109.528c1.014.881 1.596 2.155 1.596 3.497v83.36c0 4.705 2.094 9.107 5.744 12.078 2.813 2.29 6.27 3.503 9.822 3.503 1.062 0 2.132-.108 3.196-.329l32.315-6.739c7.186-1.494 12.403-7.909 12.403-15.252v-23.37c0-4.142-3.357-7.5-7.5-7.5s-7.5 3.358-7.5 7.5v23.37c0 .278-.188.511-.462.568l-32.31 6.738c-.076.017-.277.056-.496-.121-.213-.174-.213-.371-.213-.445v-83.36c0-5.69-2.465-11.093-6.765-14.825l-126.241-109.533c-2.786-2.415-4.383-5.911-4.383-9.593v-15.61h17.43c4.142 0 7.5-3.358 7.5-7.5s-3.358-7.5-7.5-7.5h-37.05c-.32 0-.58-.26-.58-.58v-16.16c0-.325.26-.59.58-.59h347.5c.32 0 .58.265.58.59v16.16c0 .32-.26.58-.58.58h-275.45c-4.142 0-7.5 3.358-7.5 7.5s3.358 7.5 7.5 7.5h255.83v15.61c0 3.682-1.598 7.179-4.385 9.595l-126.241 109.53c-4.299 3.73-6.764 9.134-6.764 14.824v18.25c0 4.142 3.357 7.5 7.5 7.5s7.5-3.358 7.5-7.5v-18.25c0-1.342.582-2.616 1.595-3.495l126.238-109.528c6.073-5.266 9.557-12.893 9.557-20.927v-15.609h4.62c8.591 0 15.58-6.989 15.58-15.58v-16.16c0-8.597-6.99-15.59-15.58-15.59zm-40.328-151.52h-32.406c-3.663 0-6.643-2.979-6.643-6.642v-32.399z"
         id="path1"
         style="fill:#007bff;fill-opacity:1" />
      <path
         d="m286.416 119.199h-84.965c-4.142 0-7.5 3.358-7.5 7.5s3.358 7.5 7.5 7.5h84.965c4.143 0 7.5-3.358 7.5-7.5s-3.357-7.5-7.5-7.5z"
         id="path2"
         style="fill:#007bff;fill-opacity:1" />
      <path
         d="m129.301 126.699c0 4.142 3.358 7.5 7.5 7.5h32.325c4.142 0 7.5-3.358 7.5-7.5s-3.358-7.5-7.5-7.5h-32.325c-4.142 0-7.5 3.358-7.5 7.5z"
         id="path3"
         style="fill:#007bff;fill-opacity:1" />
      <path
         d="m229.387 159.024c0-4.142-3.358-7.5-7.5-7.5h-85.086c-4.142 0-7.5 3.358-7.5 7.5s3.358 7.5 7.5 7.5h85.086c4.142 0 7.5-3.358 7.5-7.5z"
         id="path4"
         style="fill:#007bff;fill-opacity:1" />
      <path
         d="m293.916 159.024c0-4.142-3.357-7.5-7.5-7.5h-32.204c-4.142 0-7.5 3.358-7.5 7.5s3.358 7.5 7.5 7.5h32.204c4.143 0 7.5-3.358 7.5-7.5z"
         id="path5"
         style="fill:#007bff;fill-opacity:1" />
      <path
         d="m136.801 183.849c-4.142 0-7.5 3.358-7.5 7.5s3.358 7.5 7.5 7.5h56.68c4.142 0 7.5-3.358 7.5-7.5s-3.358-7.5-7.5-7.5z"
         id="path6"
         style="fill:#007bff;fill-opacity:1" />
      <path
         d="m225.806 198.849h28.406c4.143 0 7.5-3.358 7.5-7.5s-3.357-7.5-7.5-7.5h-28.406c-4.142 0-7.5 3.358-7.5 7.5s3.358 7.5 7.5 7.5z"
         id="path7"
         style="fill:#007bff;fill-opacity:1" />
      <path
         d="m164.962 34.522c-2.929-2.929-7.678-2.929-10.606 0l-22.857 22.857c-2.929 2.929-2.929 7.678 0 10.606l22.857 22.857c1.464 1.464 3.384 2.197 5.303 2.197s3.839-.732 5.303-2.197c2.929-2.929 2.929-7.678 0-10.606l-17.554-17.554 17.554-17.554c2.929-2.928 2.929-7.677 0-10.606z"
         id="path8"
         style="fill:#007bff;fill-opacity:1" />
      <path
         d="m229.107 90.843c1.464 1.464 3.384 2.197 5.303 2.197s3.839-.732 5.303-2.197l22.858-22.857c2.929-2.929 2.929-7.678 0-10.606l-22.858-22.857c-2.929-2.929-7.678-2.929-10.606 0-2.929 2.929-2.929 7.678 0 10.606l17.554 17.554-17.554 17.554c-2.929 2.928-2.929 7.677 0 10.606z"
         id="path9"
         style="fill:#007bff;fill-opacity:1" />
      <path
         d="m191.99 93.041c3.442 0 6.543-2.384 7.316-5.883l10.102-45.715c.894-4.044-1.661-8.048-5.705-8.941-4.045-.896-8.048 1.661-8.941 5.705l-10.102 45.715c-.894 4.044 1.661 8.048 5.705 8.941.545.121 1.09.178 1.625.178z"
         id="path10"
         style="fill:#007bff;fill-opacity:1" />
    </g>
  </g>
</svg>
