<svg height="512" viewBox="0 0 128 128" width="512" xmlns="http://www.w3.org/2000/svg" xmlns:xlink="http://www.w3.org/1999/xlink"><linearGradient id="a" gradientUnits="userSpaceOnUse" x1="109.365" x2="12.706" y1="108.576" y2="11.917"><stop offset="0" stop-color="#00b7f0"/><stop offset="1" stop-color="#fb3d80"/></linearGradient><path d="m115.694 39.191v.67a1.75 1.75 0 1 1 -3.5 0v-.67a1.75 1.75 0 1 1 3.5 0zm0-21.252v13.753a1.75 1.75 0 0 1 -3.5 0v-5.377h-3.485v51.665h3.485v-31.321a1.75 1.75 0 0 1 3.5 0v33.071a1.708 1.708 0 0 1 -.025.25c0 .027 0 .053-.008.08a1.706 1.706 0 0 1 -.124.388l-.006.019-6.985 15.052a1.75 1.75 0 0 1 -3.174 0l-6.985-15.052-.006-.019a1.714 1.714 0 0 1 -.124-.389c-.005-.025 0-.052-.008-.078a1.721 1.721 0 0 1 -.025-.251v-61.791a1.75 1.75 0 0 1 3.5 0v4.876h10.47v-4.876a3.149 3.149 0 0 0 -3.146-3.146h-4.178a1.75 1.75 0 0 1 0-3.5h4.178a6.653 6.653 0 0 1 6.646 6.646zm-4.494 63.541h-8.488l4.244 9.145zm-5.994-55.165h-3.485v51.665h3.485zm-83.563 90.392h28.123a1.75 1.75 0 0 0 0-3.5h-28.124a5.843 5.843 0 0 1 -5.836-5.836v-92.578h72.23v52.807a1.75 1.75 0 0 0 3.5 0v-54.557a1.749 1.749 0 0 0 -1.75-1.75h-75.73a1.749 1.749 0 0 0 -1.75 1.75v94.328a9.346 9.346 0 0 0 9.336 9.336zm68.143-39.681a1.749 1.749 0 0 0 1.75-1.75v-1.021a1.75 1.75 0 0 0 -3.5 0v1.021a1.749 1.749 0 0 0 1.75 1.75zm-50.319-24.742a1.749 1.749 0 0 0 1.75 1.75h37.6a1.75 1.75 0 0 0 0-3.5h-37.6a1.749 1.749 0 0 0 -1.75 1.75zm39.348 15.6h-37.6a1.75 1.75 0 0 0 0 3.5h37.6a1.75 1.75 0 0 0 0-3.5zm-45.5-4.144a1.749 1.749 0 0 1 1.75 1.75v8.287a1.749 1.749 0 0 1 -1.75 1.75h-8.289a1.75 1.75 0 0 1 -1.75-1.75v-8.283a1.75 1.75 0 0 1 1.75-1.75zm-1.75 3.5h-4.789v4.787h4.787zm-8.289 23.896v-8.287a1.75 1.75 0 0 1 1.75-1.75h8.287a1.749 1.749 0 0 1 1.75 1.75v8.287a1.749 1.749 0 0 1 -1.75 1.75h-8.287a1.75 1.75 0 0 1 -1.75-1.75zm3.5-1.75h4.787v-4.786h-4.787zm52.039-4.144h-37.6a1.75 1.75 0 0 0 0 3.5h37.6a1.75 1.75 0 0 0 0-3.5zm-49.536-32.192-2.5-2.5a1.749 1.749 0 1 0 -2.474 2.474l3.733 3.734a1.752 1.752 0 0 0 2.475 0l6.487-6.478a1.75 1.75 0 1 0 -2.475-2.474zm77.43 50.736a1.749 1.749 0 0 0 -1.75-1.75h-13.423v-20.312a1.75 1.75 0 1 0 -3.5 0v20.312h-58.807a1.749 1.749 0 0 0 -1.75 1.75v3.585a1.75 1.75 0 0 0 3.5 0v-1.835h72.23v1.835a5.843 5.843 0 0 1 -5.837 5.836h-33.946a1.75 1.75 0 1 0 0 3.5h33.946a9.347 9.347 0 0 0 9.337-9.336zm-49.581 12.921a1.75 1.75 0 0 0 0-3.5h-1.112a1.75 1.75 0 1 0 0 3.5zm-25.495-94.178a1.75 1.75 0 1 0 0-3.5h-8.713a1.75 1.75 0 0 0 -1.75 1.75v14.551a1.749 1.749 0 0 0 1.75 1.75h8.713a1.75 1.75 0 1 0 0-3.5h-6.963v-3.775h6.963a1.75 1.75 0 1 0 0-3.5h-6.963v-3.776zm49.288 14.551a1.749 1.749 0 0 0 1.75-1.75v-14.551a1.75 1.75 0 0 0 -3.11-1.1l-4.832 5.968-4.829-5.969a1.75 1.75 0 0 0 -3.11 1.1v14.552a1.75 1.75 0 0 0 3.5 0v-9.607l3.081 3.805a1.808 1.808 0 0 0 2.721 0l3.081-3.8v9.602a1.749 1.749 0 0 0 1.748 1.75zm-32.8 0a1.75 1.75 0 0 0 1.411-2.78l-1.842-2.523a1.75 1.75 0 1 0 -2.826 2.065l1.842 2.52a1.746 1.746 0 0 0 1.414.718zm-11.666-.337a1.749 1.749 0 0 0 2.445-.381l10.633-14.55a1.75 1.75 0 1 0 -2.826-2.065l-3.9 5.342-3.9-5.342a1.75 1.75 0 1 0 -2.826 2.065l4.562 6.243-4.57 6.245a1.75 1.75 0 0 0 .381 2.443zm24.48-1.413v-5.525h-5.213v5.525a1.75 1.75 0 0 1 -3.5 0v-14.551a1.75 1.75 0 0 1 1.75-1.75h8.713a1.751 1.751 0 0 1 1.75 1.75v14.551a1.75 1.75 0 0 1 -3.5 0zm0-9.025v-3.776h-5.213v3.776z" fill="url(#a)"/></svg>