<svg clip-rule="evenodd" fill-rule="evenodd" height="1.707in" image-rendering="optimizeQuality" shape-rendering="geometricPrecision" text-rendering="geometricPrecision" viewBox="0 0 1707 1707" width="1.707in" xmlns="http://www.w3.org/2000/svg" xmlns:xlink="http://www.w3.org/1999/xlink"><linearGradient id="id0" gradientUnits="userSpaceOnUse" x1="464.717" x2="1241.94" y1="21.421" y2="1685.25"><stop offset="0" stop-color="#401379"/><stop offset=".501961" stop-color="#8a0b92"/><stop offset="1" stop-color="#ec067f"/></linearGradient><g id="Layer_x0020_1"><path d="m1609 1240h-578l40 166h186c67 0 120 54 120 120v27c0 30-24 53-53 53h-941c-30 0-54-23-54-53v-27c0-66 54-120 120-120h187l40-166h-579c-53 0-97-44-97-97v-946c0-53 44-97 97-97h1512c54 0 97 44 97 97v946c0 53-43 97-97 97zm-37-103h-74c-26 0-26-40 0-40h74c27 0 27 40 0 40zm-1025 0h-74c-27 0-27-40 0-40h74c26 0 26 40 0 40zm-170 0h-74c-26 0-26-40 0-40h74c27 0 27 40 0 40zm-169 0h-74c-26 0-26-40 0-40h74c27 0 27 40 0 40zm1325-213h-1360c-26 0-26-40 0-40h1360c27 0 27 40 0 40zm0-111h-1360c-26 0-26-40 0-40h1360c27 0 27 40 0 40zm0-110h-1360c-26 0-26-40 0-40h1360c27 0 27 40 0 40zm0-110h-1360c-26 0-26-40 0-40h1360c27 0 27 40 0 40zm-728-91c-13 0-23-14-18-27l96-251c9-25 46-10 37 14l-96 251c-3 8-11 13-19 13zm-95 0c-6 0-13-3-16-9l-84-125c-4-7-4-16 0-23l84-125c14-22 47 0 33 22l-76 114 76 115c9 13-1 31-17 31zm286 0c-15 0-25-18-16-31l76-114-76-115c-15-22 19-44 33-22l83 125c5 7 5 16 0 23l-83 125c-4 6-10 9-17 9zm670 533h-1626v108c0 31 26 57 57 57h1512c32 0 57-26 57-57zm-1626-40h1626v-798c0-31-25-57-57-57h-1512c-31 0-57 26-57 57zm950 245h-273l-40 166h353zm-541 206c-44 0-80 36-80 80 0 18-4 40 14 40h941c17 0 13-22 13-40 0-44-36-80-80-80z" fill="url(#id0)"/></g></svg>