<svg id="Layer_1" enable-background="new 0 0 491.5 491.5" viewBox="0 0 491.5 491.5" xmlns="http://www.w3.org/2000/svg" xmlns:xlink="http://www.w3.org/1999/xlink"><linearGradient id="Layer_x0020_1_1_" gradientUnits="userSpaceOnUse" x1="245.76" x2="245.76" y1="121.27" y2="370.249"><stop offset="0" stop-color="#f704fe"/><stop offset="1" stop-color="#24bce3"/></linearGradient><path id="Layer_x0020_1" d="m368.5 276.6c-1.9 0-3.8-1.2-4.5-3.1-.9-2.5.3-5.3 2.8-6.2l84.6-32.4c2.8-1.1 4.5-3.5 4.6-6.5s-1.5-5.5-4.3-6.8l-201.1-89.6c-3.3-1.5-6.5-1.5-9.8 0l-201 89.6c-2.8 1.2-4.4 3.8-4.3 6.8s1.8 5.5 4.6 6.5l84.6 32.4c2.5.9 3.7 3.7 2.8 6.2s-3.7 3.7-6.2 2.8l-84.6-32.4c-6.5-2.5-10.6-8.3-10.8-15.2s3.6-13 10-15.8l201.1-89.7c5.7-2.6 11.8-2.6 17.6 0l201.1 89.6c6.3 2.8 10.1 8.9 10 15.8-.2 6.9-4.3 12.8-10.8 15.2l-84.6 32.4c-.6.3-1.2.4-1.8.4zm0 57.2c-2.7 0-4.8-2.1-4.8-4.8v-89.6c0-8.6-12.7-16.8-34.8-22.7-21.9-5.8-51.4-8.9-83.2-8.9-66.2 0-118 13.9-118 31.6v89.6c0 2.6-2.2 4.8-4.8 4.8-2.7 0-4.8-2.1-4.8-4.8v-89.6c0-13.9 14.1-24.6 41.9-32 22.7-6 53.1-9.3 85.6-9.3 32.6 0 63 3.3 85.6 9.3 27.8 7.3 41.9 18.1 41.9 32v89.6c.2 2.7-1.9 4.8-4.6 4.8zm-122.7-36.4c-66.2 0-118 13.9-118 31.6s51.8 31.6 118 31.6 118-13.9 118-31.6c0-8.6-12.7-16.8-34.8-22.7-21.9-5.7-51.5-8.9-83.2-8.9zm0 72.8c-32.6 0-63-3.3-85.6-9.3-27.8-7.3-41.9-18.1-41.9-32s14.1-24.6 41.9-32c22.7-6 53.1-9.3 85.6-9.3 32.6 0 63 3.3 85.6 9.3 27.8 7.3 41.9 18.1 41.9 32s-14.1 24.6-41.9 32c-22.7 6.1-53.1 9.3-85.6 9.3zm171.5-51.1c-2.6 0-4.8-2.1-4.8-4.8v-61.2c0-2.6 2.1-4.8 4.8-4.8s4.8 2.2 4.8 4.8v61.2c0 2.6-2.1 4.8-4.8 4.8zm0 0c-3.2 0-6.8 1.4-7.7 4.4l-7.7 25.4c-.5 1.8-.2 3.7.9 5.2s2.8 2.4 4.8 2.4h19.7c1.9 0 3.6-.9 4.7-2.4s1.4-3.4.9-5.2l-7.7-25.4c-1.1-3-4.7-4.4-7.9-4.4zm9.9 47h-19.7c-5 0-9.5-2.3-12.5-6.3-2.9-4-3.8-9-2.4-13.7l7.7-25.4c2.1-6.8 8.7-11.2 16.9-11.2s14.8 4.4 16.9 11.2l7.7 25.4c1.4 4.8.6 9.8-2.4 13.8-2.7 3.9-7.3 6.2-12.2 6.2z" fill="url(#Layer_x0020_1_1_)"/></svg>