<?xml version="1.0" encoding="UTF-8"?>
<svg xmlns="http://www.w3.org/2000/svg" xmlns:xlink="http://www.w3.org/1999/xlink" id="Gradient" viewBox="0 0 512 512" width="512" height="512"><defs><linearGradient id="linear-gradient" x1="256" y1="496" x2="256" y2="15.999" gradientUnits="userSpaceOnUse"><stop offset="0" stop-color="#13bce3"/><stop offset="0.5" stop-color="#be71e7"/><stop offset="1" stop-color="#ef4f5a"/></linearGradient></defs><path d="M492.438,65.344l-72-48a8,8,0,0,0-7.589-.7c-.565.242-57.066,24.549-112.818,56.407C276.339,86.593,263.2,101.63,256,115.015c-7.2-13.385-20.339-28.422-44.031-41.961C156.217,41.2,99.716,16.889,99.151,16.647a8,8,0,0,0-7.589.7l-72,48A8,8,0,0,0,16,72V360a8,8,0,0,0,4.923,7.385L112,405.333V488a8,8,0,0,0,12.8,6.4L152,474l27.2,20.4A8,8,0,0,0,192,488V438.667l20.858,8.691.065.027h0A7.974,7.974,0,0,0,216,448h80a7.974,7.974,0,0,0,3.077-.615h0l.065-.027,191.935-79.973A8,8,0,0,0,496,360V72A8,8,0,0,0,492.438,65.344Zm-184.469,21.6c46.5-26.571,93.546-47.822,107.23-53.865l18.12,12.08-60.63,27.556a8,8,0,1,0,6.622,14.566L449,55.612l22.129,14.753L294.4,144h-6.951c8.627-9.254,26.034-23.8,60.13-40.845a8,8,0,1,0-7.156-14.31c-49.828,24.914-67.37,45.586-73.272,55.155h-2.811c-.053-1.17-.149-2.433-.3-3.775C265.9,127.788,274.328,106.169,307.969,86.946ZM288,160v32H224V160Zm0,80H224V208h64Zm-64,16h64v80H224Zm0,96h64v32H224ZM96.8,33.081c13.684,6.043,60.731,27.294,107.23,53.865,33.641,19.223,42.072,40.842,43.926,53.279-.147,1.342-.243,2.605-.3,3.775H244.85c-5.9-9.569-23.444-30.241-73.272-55.155a8,8,0,1,0-7.156,14.31c34.1,17.049,51.5,31.591,60.13,40.845H217.6L40.875,70.365,63,55.612l69.685,31.671a8,8,0,0,0,6.622-14.566L78.681,45.161ZM32,84l176,73.333V428L32,354.667ZM176,472l-19.2-14.4a8,8,0,0,0-9.6,0L128,472V412l48,20Zm48-40V400h64v32Zm256-77.333L304,428V157.333L480,84ZM339.562,254.656a8,8,0,0,0,7.515.729l96-40A8,8,0,0,0,448,208V160a8,8,0,0,0-11.077-7.385l-96,40A8,8,0,0,0,336,200v48A8,8,0,0,0,339.562,254.656ZM352,205.333,432,172v30.667L352,236Zm8.646,77.818a8,8,0,0,1,4.2-10.5l56-24a8,8,0,1,1,6.3,14.706l-56,24a7.994,7.994,0,0,1-10.5-4.2Zm-19.8,37.5,112-48a8,8,0,1,1,6.3,14.706l-112,48a8,8,0,1,1-6.3-14.706Z" style="fill:url(#linear-gradient)"/></svg>
