<svg clip-rule="evenodd" fill-rule="evenodd" height="512" image-rendering="optimizeQuality" shape-rendering="geometricPrecision" text-rendering="geometricPrecision" viewBox="0 0 1707 1707" width="512" xmlns="http://www.w3.org/2000/svg"><g id="Layer_x0020_1"><g id="_488486992"><path d="m1150 701c-11-10-11-28 0-39 11-10 28-10 39 0l212 212c11 11 11 28 0 39s-28 11-39 0z" fill="#443d4d" fill-rule="nonzero"/><path d="m1150 662c11-10 28-10 39 0 11 11 11 29 0 39l-212 212c-11 11-28 11-39 0s-11-28 0-39z" fill="#443d4d" fill-rule="nonzero"/><path d="m1261 96h-183v-44c0-29 23-52 52-52h79c28 0 52 23 52 52z" fill="#443d4d" fill-rule="nonzero"/><g><path d="m412 459c98 15 173 100 173 201v204h-502v-204c0-101 75-186 173-201 21 18 48 29 78 29 30 0 57-11 78-29z" fill="#ffc839"/><path d="m474 864v-385" fill="none"/><path d="m194 864v-385" fill="none"/><path d="m83 660v204h111v-385c-66 34-111 103-111 181z" fill="#ffa22e"/><path d="m474 479v385h111v-204c0-78-45-147-111-181z" fill="#ffa22e"/><rect fill="#ffc7ab" height="346" rx="138" ry="173" width="276" x="196" y="59"/><path d="m471 183c-130-61-132 94-275 12" fill="none"/><path d="m471 183c-7-70-66-124-137-124-75 0-137 61-138 136 143 82 145-73 275-12z" fill="#945230"/></g><path d="m947 1350c65 29 110 94 110 170v174c0 7-6 13-13 13h-381c-8 0-13-6-13-13v-174c0-76 45-141 110-170 22 27 56 44 93 44 38 0 72-17 94-44z" fill="#1689fc"/><g fill="#42a0fc"><path d="m986 1707h-55v-191c0-15 12-28 28-28 15 0 27 13 27 28z"/><path d="m776 1707h-56v-191c0-15 13-28 28-28s28 13 28 28z"/></g><circle cx="853" cy="1166" fill="#ffc7ab" r="141"/><path d="m1544 1350c65 29 110 94 110 170v174c0 7-6 13-13 13h-381c-7 0-13-6-13-13v-174c0-76 45-141 110-170 22 27 56 44 93 44 38 0 72-17 94-44z" fill="#ffc839"/><g fill="#ffa22e"><path d="m1583 1707h-55v-191c0-15 12-28 28-28 15 0 27 13 27 28z"/><path d="m1373 1707h-56v-191c0-15 13-28 28-28s28 13 28 28z"/></g><circle cx="1450" cy="1166" fill="#ffc7ab" r="141"/><path d="m350 1350c65 29 110 94 110 170v174c0 7-6 13-13 13h-381c-8 0-14-6-14-13v-174c0-76 46-141 110-170 23 27 56 44 94 44s72-17 94-44z" fill="#7e6dd1"/><g fill="#9789da"><path d="m389 1707h-55v-191c0-15 12-28 28-28 15 0 27 13 27 28z"/><path d="m179 1707h-56v-191c0-15 13-28 28-28s28 13 28 28z"/></g><circle cx="256" cy="1166" fill="#ffc7ab" r="141"/><path d="m718 96h902v586h-902z" fill="#f5f5f5"/><path d="m718 68h903c15 0 27 12 27 28v586c0 15-12 27-27 27h-903c-15 0-27-12-27-27v-586c0-16 12-28 27-28zm875 55h-847v531h847z" fill="#5c546a" fill-rule="nonzero"/><g fill="#c7c7c7"><path d="m1005 235c-16 0-28-12-28-27 0-16 12-28 28-28h329c16 0 28 12 28 28 0 15-12 27-28 27z"/><path d="m830 356c-16 0-28-12-28-28 0-15 12-27 28-27h679c16 0 28 12 28 27 0 16-12 28-28 28z"/><path d="m830 477c-16 0-28-13-28-28s12-28 28-28h679c16 0 28 13 28 28s-12 28-28 28z"/><path d="m1205 597c-16 0-28-12-28-27s12-28 28-28h304c16 0 28 13 28 28s-12 27-28 27z"/></g></g></g></svg>