<svg id="Capa_1" enable-background="new 0 0 512 512" height="512" viewBox="0 0 512 512" width="512" xmlns="http://www.w3.org/2000/svg"><g><path d="m473.903 353.639c-11.646-14.21-33.23-16.249-47.322-4.455l-61.837 51.726c-3.9-14.293-17.293-24.919-32.95-24.919h-66.666c-9.595 0-18.888-3.05-26.173-8.593-28.388-21.553-69.858-20.35-96.942 2.993-4.198 3.611-9.72 5.6-15.547 5.6h-18.469v-11.536c0-4.142-3.358-7.5-7.5-7.5h-62.238c-4.142 0-7.5 3.358-7.5 7.5v53.642c0 4.142 3.358 7.5 7.5 7.5s7.5-3.358 7.5-7.5v-46.142h47.238v125.045h-47.238v-46.151c0-4.142-3.358-7.5-7.5-7.5s-7.5 3.358-7.5 7.5v53.651c0 4.142 3.358 7.5 7.5 7.5h62.238c4.142 0 7.5-3.358 7.5-7.5v-11.166h26.925c2.303 0 4.588.335 6.787.995l45.086 13.556c9.082 2.73 18.488 4.115 27.958 4.115h107.884c12.614 0 24.781-4.574 34.257-12.879l64.191-56.226c3.116-2.729 3.429-7.467.7-10.583-2.729-3.115-7.467-3.429-10.583-.7l-64.193 56.227c-6.741 5.908-15.396 9.162-24.372 9.162h-107.884c-8.006 0-15.959-1.171-23.639-3.48l-45.09-13.557c-3.603-1.081-7.338-1.629-11.102-1.629h-26.925v-87.343h18.469c9.416 0 18.411-3.277 25.335-9.233 11.262-9.707 25.656-15.053 40.529-15.053 13.677 0 26.663 4.371 37.549 12.636 9.875 7.513 22.393 11.65 35.249 11.65h66.666c23.353 0 25.733 37.201.495 37.201h-84.982c-4.142 0-7.5 3.358-7.5 7.5s3.358 7.5 7.5 7.5h84.982c13.501 0 26.598-9.256 31.444-21.88l72.474-60.624c9.383-6.438 18.082-5.617 26.099 2.463 6.036 7.354 5.052 19.295-2.109 25.558l-24.346 21.32c-3.116 2.729-3.43 7.467-.702 10.583 2.729 3.117 7.468 3.431 10.583.701l24.342-21.316c13.215-11.557 14.967-32.788 3.829-46.359z"/><path d="m76.878 418.915v-15.561c0-4.142-3.358-7.5-7.5-7.5s-7.5 3.358-7.5 7.5v15.561c0 4.142 3.358 7.5 7.5 7.5s7.5-3.358 7.5-7.5z"/><path d="m256.011 284.725c4.142 0 7.5-3.358 7.5-7.5v-10.873c12.371-1.375 22.023-11.894 22.023-24.626 0-13.663-11.116-24.778-24.778-24.778h-9.491c-5.392 0-9.778-4.387-9.778-9.778s4.387-9.778 9.778-9.778h8.479c3.609 0 6.731 2.323 7.769 5.78 1.19 3.967 5.368 6.219 9.339 5.028 3.967-1.19 6.219-5.371 5.028-9.339-2.588-8.625-9.729-14.772-18.37-16.169v-11.021c0-4.142-3.358-7.5-7.5-7.5s-7.5 3.358-7.5 7.5v10.873c-12.371 1.374-22.024 11.894-22.024 24.626 0 13.663 11.116 24.778 24.778 24.778h9.491c5.392 0 9.778 4.387 9.778 9.778s-4.387 9.778-9.778 9.778h-10.704c-3.609 0-6.731-2.323-7.769-5.78-1.19-3.968-5.37-6.22-9.339-5.028-3.967 1.19-6.219 5.371-5.028 9.339 2.806 9.355 10.971 15.795 20.595 16.419v10.77c.001 4.143 3.359 7.501 7.501 7.501z"/><path d="m199.895 340.876h39.745c4.142 0 7.5-3.358 7.5-7.5s-3.358-7.5-7.5-7.5h-39.745c-57.216 0-80.719-71.289-57.051-115.787l38.603-71.504h149.141l38.622 71.492c23.556 44.472.162 115.8-57.083 115.8h-39.745c-4.142 0-7.5 3.358-7.5 7.5s3.358 7.5 7.5 7.5h39.745c68.169 0 99.017-83.675 70.309-137.875l-49.498-91.625 45.566 11.422c3.787.908 6.82-.909 9.099-5.451 1.007-4.018-1.434-8.091-5.451-9.099l-33.053-8.286 33.053-8.286c4.018-1.007 6.458-5.081 5.451-9.099-1.007-4.019-5.083-6.457-9.099-5.451l-46.248 11.593 12.948-25.896c7.733-15.452-4.776-32.608-20.142-32.608h-31.403c5.352-15.216-4.004-30.216-21.367-30.216h-32.562c-17.363 0-26.344 13.375-21.367 30.217h-31.403c-15.363 0-27.876 17.154-20.143 32.605l18.504 37.01-55.699 103.172c-28.869 54.274 2.035 137.872 70.273 137.872zm-10.35-217.291 8.703-16.122h115.527l8.709 16.122zm135.517-78.368c6.293 1.131 8.535 4.763 6.727 10.897l-18.174 36.349h-32.853l9.669-47.246zm-85.331-30.217h32.562c5.383.703 7.832 3.758 7.347 9.164l-14.188 68.299h-18.88l-14.188-68.302c-1.124-4.661 2.377-9.161 7.347-9.161zm-59.499 41.111c-1.806-6.132.437-9.764 6.728-10.894h34.631l9.669 47.246h-32.853z"/></g></svg>