<svg id="line_copy" viewBox="0 0 64 64" xmlns="http://www.w3.org/2000/svg" xmlns:xlink="http://www.w3.org/1999/xlink" data-name="line copy"><linearGradient id="linear-gradient" gradientUnits="userSpaceOnUse" x1="10.045" x2="53.955" y1="32" y2="32"><stop offset="0" stop-color="#00c0ff"/><stop offset="1" stop-color="#5558ff"/></linearGradient><path d="m44.15205 54.00641h-4.1216c-3.52753 0-5.84788-4.45844-6.69986-6.42171 18.99483-2.68624 27.86261-26.8887 13.55557-41.15399a1.01745 1.01745 0 0 0 -1.42416-.01443l-2.8572 2.846c-11.71606-11.153-32.41455-3.655-32.56007 13.81232a19.09548 19.09548 0 0 0 5.41962 13.32886c-1.04831 1.05241-2.90373 2.91516-2.90367 2.91516a.89267.89267 0 0 0 -.27967.60723 1.1156 1.1156 0 0 0 .28059.803 24.02058 24.02058 0 0 0 18.03719 7.07846c-.92608 2.06111-3.20749 6.19909-6.6027 6.19909h-4.0297a4.9954 4.9954 0 0 0 -4.98939 4.99182 1.00151 1.00151 0 0 0 1.00182 1.00178h32.15982a1.004 1.004 0 0 0 1.00178-1.00472 4.99394 4.99394 0 0 0 -4.98837-4.98887zm-4.39541-44.45925a17.27667 17.27667 0 0 1 4.4999 5.25613h-3.38084a2.80787 2.80787 0 0 0 -1.99867.8296l-2.56218 2.56218a2.807 2.807 0 0 0 -.82961 1.99868v1.06342a2.82243 2.82243 0 0 0 2.81948 2.819.81566.81566 0 0 1 -.00006 1.63084 2.82973 2.82973 0 0 0 -2.81942 2.81892c-.03522.41242.13709 1.344-.24262 1.64508-3.56885 3.26522-3.57338 4.34423.00013 7.61311.26463.21816.26738.76155.24952 1.2482a18.18178 18.18178 0 0 1 -10.34019.64947c.09642-.1786 2.161-2.92006 2.09785-2.991-.15047-.32076 4.44016-4.58176 4.64885-4.88553a3.59662 3.59662 0 0 0 1.04678-2.525v-5.16987a2.80708 2.80708 0 0 0 -3.05133-2.68939l-5.93244.46568.85791-.60019a1.92122 1.92122 0 0 0 -.002-3.15308c-.1361-.07307-1.11227-1.0891-1.25119-1.22a1.58313 1.58313 0 0 1 0-2.21732l1.06153-1.06189c.54693-.67546 1.87963-.40435 2.61886-.46176.85143-.09031 1.61909 1.04379 2.17183 1.52365a3.66353 3.66353 0 0 0 5.051 0l1.06342-1.06293c2.15261-2.18741-.44088-4.46716 4.22349-4.086zm-1.45186 18.1634a2.81928 2.81928 0 0 0 -.00006-5.6381c-1.02955-.03687-.79628-1.1783-.81591-1.87871a.81773.81773 0 0 1 .24262-.5816l2.56218-2.56267a.818.818 0 0 1 .58209-.24262h4.31164c3.4761 8.10709-1.1039 18.32793-7.73118 21.33713a2.64151 2.64151 0 0 0 -.79695-1.77641l-1.81671-1.81769a.81011.81011 0 0 1 0-1.14511c.89178-.98387 2.78058-2.29468 2.64631-3.81588.01461-.68065-.203-1.84961.81597-1.87834zm-9.08656-21.80691a17.041 17.041 0 0 1 7.717 1.85315 3.61107 3.61107 0 0 0 -2.35783 3.40035c.09544.7783-1.06831 1.60747-1.5242 2.12243a1.57 1.57 0 0 1 -2.21782 0l-1.06348-1.06281c-.99689-1.12071-2.661-1.08854-4.03349-1.04788a3.55228 3.55228 0 0 0 -2.52586 1.04776c-3.04883 2.437-2.63733 5.264.38246 7.48159l-1.02233.71459c-1.67822 1.14229-.36155 3.61661 1.45376 3.47836l6.0263-.473a.78884.78884 0 0 1 .88927.71912v5.14295a1.57844 1.57844 0 0 1 -.45986 1.10884c-.70707.82655-4.9224 4.56728-5.07343 5.504l-2.30271 3.20383c-.05228-.01884-.10273-.04219-.15482-.06158 0-1.86935 0-6.875-.00006-6.875a2.82811 2.82811 0 0 0 -2.80865-2.819.82606.82606 0 0 1 -.82569-.81542 2.827 2.827 0 0 0 -2.81948-2.819.82716.82716 0 0 1 -.81493-.81542c.06463-.42782-.15964-1.331.24268-1.645.88647-.97678 2.77912-2.29584 2.64131-3.80707.12907-1.52775-1.743-2.81251-2.64137-3.807a2.61055 2.61055 0 0 0 -1.76657-.79365 17.18163 17.18163 0 0 1 15.0598-8.93514zm-15.969 10.90321c.38092.03124.97873-.09954 1.25926.24268l1.81671 1.81763a.81253.81253 0 0 1 0 1.14559l-1.81665 1.81672a3.73609 3.73609 0 0 0 -.82966 3.06209 2.83248 2.83248 0 0 0 2.81849 2.819.827.827 0 0 1 .816.81535 2.84365 2.84365 0 0 0 2.85263 2.81908.80683.80683 0 0 1 .78166.81542v5.967c-7.07397-3.42351-10.97789-13.35429-7.69849-21.32056zm1.46278 23.18962c.65124-.65382 1.58834-1.59458 2.21555-2.22424a19.23955 19.23955 0 0 0 6.31887 3.51114c11.9138 4.17069 25.343-5.28371 25.14544-18.20907a20.40353 20.40353 0 0 0 -4.4272-12.338l2.16572-2.15722c18.32162 21.66546-9.82575 49.68766-31.41838 31.41739zm17.3012 9.50979a15.69947 15.69947 0 0 0 3.27549 4.50014h-6.551a15.69947 15.69947 0 0 0 3.27555-4.50014zm-14.86041 8.49016a2.99056 2.99056 0 0 1 2.8136-1.98643h24.18566a2.98891 2.98891 0 0 1 2.81262 1.98645z" fill="url(#linear-gradient)"/></svg>