<svg id="Capa_1" enable-background="new 0 0 512 512" height="512" viewBox="0 0 512 512" width="512" xmlns="http://www.w3.org/2000/svg"><g><g><path d="m188.124 454.693c-4.143 0-7.5 3.357-7.5 7.5v41.472c0 4.143 3.357 7.5 7.5 7.5s7.5-3.357 7.5-7.5v-41.472c0-4.143-3.357-7.5-7.5-7.5z"/><path d="m330.537 454.693c-4.143 0-7.5 3.357-7.5 7.5v41.472c0 4.143 3.357 7.5 7.5 7.5s7.5-3.357 7.5-7.5v-41.472c0-4.143-3.357-7.5-7.5-7.5z"/><path d="m368.261 425.764c-3.853 1.521-5.742 5.878-4.221 9.73 2.551 6.458 3.898 14.161 3.898 22.276v45.894c0 4.143 3.357 7.5 7.5 7.5s7.5-3.357 7.5-7.5v-45.894c0-9.982-1.711-19.591-4.947-27.786-1.521-3.853-5.88-5.742-9.73-4.22z"/><path d="m351.569 402.015c-1.475-.638-3.038-1.216-4.681-1.729l-44.171-13.593v-9.745c19.122-15.645 32.684-38.929 32.684-59.496v-20.475c3.858-29.928 5.056-61.167-24.02-85.904-16.279-13.825-45.4-20.477-69.238-15.813-12.649 2.475-22.388 7.994-27.877 15.712-26.062 6.105-39.729 27.964-35.819 57.836l3.651 28.177v20.468c0 20.976 14.11 44.773 33.846 60.418v8.823l-44.18 13.595c-22.585 6.98-36.069 28.47-36.069 57.483v45.894c0 4.143 3.357 7.5 7.5 7.5s7.5-3.357 7.5-7.5v-45.894c0-10.605 2.484-36.039 25.49-43.149l40.255-12.388c1.509 7.881 6.472 14.639 14.363 19.367 7.656 4.589 17.788 7.115 28.527 7.115 23.092 0 39.885-10.651 42.898-26.48l40.213 12.375c1.11.348 2.179.742 3.176 1.174.97.419 1.979.617 2.972.617 2.901 0 5.664-1.693 6.889-4.526 1.644-3.803-.106-8.218-3.909-9.862zm-125.856-181.096c2.826-5.171 9.664-9.052 19.309-10.938 4.195-.82 8.617-1.212 13.108-1.212 16.293 0 33.443 5.161 43.536 13.732 18.149 15.441 21.576 34.417 20.579 54.714-14.117-11.074-33.313-10.107-50.767-9.23-15.933.806-30.982 1.549-41.26-6.017-7.939-7.408-8.613-30.973-4.505-41.049zm-29.99 64.483-2.401-18.531c-1.481-11.321-.915-29.551 15.401-38.054-1.496 13.491.293 30.729 8.579 41.187-2.528 7.832-10.208 11.243-20.485 14.999-.37.134-.734.267-1.094.399zm91.995 106.83v4.79c0 12.249-16.977 16.694-28.387 16.694s-28.387-4.445-28.387-16.694v-4.79-4.689c2.595 1.314 5.237 2.488 7.919 3.482 7.29 2.672 13.613 3.916 19.9 3.916 6.302 0 12.619-1.246 19.898-3.926 3.074-1.14 6.098-2.512 9.056-4.07v5.287zm-14.255-15.287c-5.551 2.044-10.222 2.996-14.699 2.996-4.471 0-9.154-.953-14.712-2.99-25.013-9.274-46.953-37.078-46.953-59.499v-16.502c1.473-.617 3.223-1.259 4.865-1.859 8.544-3.122 21.729-7.939 27.879-20.171 12.912 5.529 27.85 4.777 42.39 4.046 24.095-1.212 39.529-1.106 48.169 15.312v19.173c-.001 22.422-21.942 50.225-46.939 59.494z"/><path d="m199.484 83.527 41.276 40.91c4.162 4.153 9.629 6.931 15.565 6.931 5.573 0 10.996-3.031 14.86-6.907l41.325-40.957.17-.17c.03-.031.062-.062.092-.095 18.587-19.253 18.587-50.581.001-69.834-16.172-16.754-39.785-15.113-56.788-4.695-16.995-10.411-40.596-12.05-56.758 4.695-18.516 19.18-18.587 50.34-.214 69.611.128.151.283.322.471.511zm10.535-59.704c11.571-11.986 29.592-9.11 41.412-.073 2.688 2.057 6.422 2.057 9.109 0 11.83-9.041 29.862-11.921 41.442.073 13.026 13.494 13.04 35.441.042 48.953l-41.421 41.054-.084.085c-.023.018-.047.036-.069.054-2.439 1.937-3.134 2.335-4.292 2.399h-.342c-1.15-.066-1.883-.484-4.272-2.382-.062-.05-.12-.1-.2-.18l-41.045-40.68c-.089-.102-.188-.21-.299-.324-13.024-13.51-13.018-35.476.019-48.979z"/><path d="m157.668 235.301v-86.119c0-9.778-7.955-17.733-17.733-17.733h-12.257v-18.439c0-7.215-5.87-13.084-13.085-13.084h-71.518c-7.215 0-13.085 5.869-13.085 13.084v18.438h-12.257c-9.778.001-17.733 7.956-17.733 17.734v86.119c0 9.762 7.955 17.704 17.729 17.704l43.795.028h.005c4.14 0 7.497-3.354 7.5-7.495.003-4.143-3.353-7.502-7.495-7.505l-43.8-.028c-1.481 0-2.733-1.238-2.733-2.704v-36.021c4.022 2.173 8.622 3.409 13.505 3.409h19.429v.296c0 8.419 6.849 15.268 15.268 15.268h31.266c8.419 0 15.268-6.849 15.268-15.268v-.296h19.4c4.894 0 9.504-1.239 13.533-3.417v36.029c0 1.466-1.252 2.704-2.738 2.704l-43.795.028c-4.143.003-7.498 3.362-7.495 7.505.003 4.141 3.359 7.495 7.5 7.495h.005l43.79-.028c9.776 0 17.731-7.942 17.731-17.704zm-112.678-120.375h67.688v16.522h-67.688zm49.744 88.059c0 .136-.153.268-.268.268h-31.265c-.138 0-.268-.13-.268-.268v-15.562c0-.156.149-.296.268-.296h31.266c.099 0 .268.146.268.296v15.562zm34.401-15.296h-19.4v-.267c0-8.435-6.849-15.296-15.268-15.296h-31.266c-8.419 0-15.268 6.861-15.268 15.296v.267h-19.428c-7.446 0-13.505-6.059-13.505-13.505v-25.002c0-1.481 1.252-2.733 2.733-2.733h122.201c1.481 0 2.733 1.252 2.733 2.733v25.002c.001 7.446-6.07 13.505-13.532 13.505z"/><path d="m346.396 56.783c13.158 6.182 25.709 13.63 37.306 22.136 1.336.98 2.89 1.453 4.43 1.453 2.308 0 4.584-1.062 6.054-3.065 2.449-3.34 1.728-8.033-1.612-10.483-12.375-9.077-25.766-17.023-39.798-23.616-3.75-1.76-8.216-.149-9.978 3.599-1.762 3.747-.151 8.214 3.598 9.976z"/><path d="m123.84 80.372c1.537 0 3.088-.472 4.423-1.448 11.628-8.51 24.184-15.959 37.317-22.144 3.748-1.764 5.355-6.232 3.591-9.979-1.765-3.748-6.232-5.356-9.979-3.591-14 6.591-27.387 14.534-39.786 23.608-3.343 2.446-4.07 7.139-1.624 10.481 1.468 2.008 3.747 3.073 6.058 3.073z"/><path d="m431.678 91.336c-44.29 0-80.322 36.033-80.322 80.324s36.032 80.324 80.322 80.324 80.322-36.032 80.322-80.323-36.032-80.325-80.322-80.325zm0 145.649c-36.019 0-65.322-29.305-65.322-65.324s29.304-65.324 65.322-65.324 65.322 29.304 65.322 65.324-29.304 65.324-65.322 65.324z"/><path d="m470.293 168.475-31.115-17.248v-12.506c0-4.143-3.357-7.5-7.5-7.5s-7.5 3.357-7.5 7.5v12.506l-31.115 17.248c-3.623 2.008-4.932 6.573-2.924 10.195 1.37 2.472 3.928 3.865 6.566 3.865 1.229 0 2.478-.303 3.629-.941l23.844-13.217v23.752l-10.675 5.91c-3.624 2.006-4.935 6.57-2.929 10.194 1.369 2.473 3.929 3.868 6.568 3.868 1.229 0 2.475-.302 3.626-.939l10.906-6.038 10.879 6.035c1.152.64 2.4.942 3.631.942 2.637 0 5.195-1.394 6.565-3.863 2.009-3.622.701-8.187-2.921-10.196l-10.651-5.908v-23.757l23.844 13.217c1.151.639 2.398.941 3.629.941 2.638 0 5.197-1.395 6.566-3.865 2.009-3.622.7-8.187-2.923-10.195z"/></g></g></svg>