<svg id="Layer_1" enable-background="new 0 0 512 512" viewBox="0 0 512 512" xmlns="http://www.w3.org/2000/svg" xmlns:xlink="http://www.w3.org/1999/xlink"><linearGradient id="lg1"><stop offset="0" stop-color="#ec84ef"/><stop offset="1" stop-color="#42ded0"/></linearGradient><linearGradient id="SVGID_1_" gradientUnits="userSpaceOnUse" x1="256" x2="256" xlink:href="#lg1" y1="-20.333" y2="532.698"/><linearGradient id="SVGID_00000069387688619674637050000017193424493498576773_" gradientUnits="userSpaceOnUse" x1="159.4" x2="159.4" xlink:href="#lg1" y1="-20.333" y2="532.698"/><linearGradient id="SVGID_00000077292012691577061210000013451084035503143325_" gradientUnits="userSpaceOnUse" x1="256.2" x2="256.2" xlink:href="#lg1" y1="-20.333" y2="532.698"/><linearGradient id="SVGID_00000026133856725944526660000007091007045036281520_" gradientUnits="userSpaceOnUse" x1="353" x2="353" xlink:href="#lg1" y1="-20.333" y2="532.698"/><linearGradient id="SVGID_00000052799180456826996930000015036841352574819716_" gradientUnits="userSpaceOnUse" x1="328.86" x2="328.86" xlink:href="#lg1" y1="-20.333" y2="532.698"/><linearGradient id="SVGID_00000175290763065455385790000014747513162212168122_" gradientUnits="userSpaceOnUse" x1="285.673" x2="285.673" xlink:href="#lg1" y1="-20.333" y2="532.698"/><g><g><g><g><g><g><g><g><g><g><path d="m389.333 512h-266.666c-30.327 0-55-24.673-55-55v-402c0-30.327 24.673-55 55-55h266.667c30.327 0 55 24.673 55 55v402c-.001 30.327-24.674 55-55.001 55zm-266.666-492c-19.299 0-35 15.701-35 35v402c0 19.299 15.701 35 35 35h266.667c19.299 0 35-15.701 35-35v-402c0-19.299-15.701-35-35-35z" fill="url(#SVGID_1_)"/></g></g></g></g></g></g></g></g></g><g><g><g><g><g><g><g><g><g><g><path d="m159.4 277.8c-16.101 0-29.2-13.099-29.2-29.2s13.099-29.2 29.2-29.2 29.2 13.099 29.2 29.2-13.099 29.2-29.2 29.2zm0-38.4c-5.073 0-9.2 4.127-9.2 9.2s4.127 9.2 9.2 9.2 9.2-4.127 9.2-9.2-4.127-9.2-9.2-9.2z" fill="url(#SVGID_00000069387688619674637050000017193424493498576773_)"/></g></g></g></g></g></g></g></g></g><g><g><g><g><g><g><g><g><g><path d="m256.2 277.8c-16.101 0-29.2-13.099-29.2-29.2s13.099-29.2 29.2-29.2 29.2 13.099 29.2 29.2-13.099 29.2-29.2 29.2zm0-38.4c-5.073 0-9.2 4.127-9.2 9.2s4.127 9.2 9.2 9.2 9.2-4.127 9.2-9.2c.001-5.073-4.126-9.2-9.2-9.2z" fill="url(#SVGID_00000077292012691577061210000013451084035503143325_)"/></g></g></g></g></g></g></g></g></g><g><g><g><g><g><g><g><g><g><path d="m353 277.8c-16.101 0-29.2-13.099-29.2-29.2s13.1-29.2 29.2-29.2 29.2 13.099 29.2 29.2-13.099 29.2-29.2 29.2zm0-38.4c-5.073 0-9.2 4.127-9.2 9.2s4.127 9.2 9.2 9.2 9.2-4.127 9.2-9.2-4.127-9.2-9.2-9.2z" fill="url(#SVGID_00000026133856725944526660000007091007045036281520_)"/></g></g></g></g></g></g></g></g></g><g><g><g><g><g><g><g><g><g><path d="m159.4 367.8c-16.101 0-29.2-13.1-29.2-29.2s13.1-29.2 29.2-29.2c16.101 0 29.2 13.099 29.2 29.199s-13.099 29.201-29.2 29.201zm0-38.4c-5.073 0-9.2 4.127-9.2 9.199 0 5.073 4.127 9.2 9.2 9.2s9.2-4.127 9.2-9.2c0-5.072-4.127-9.199-9.2-9.199z" fill="url(#SVGID_00000069387688619674637050000017193424493498576773_)"/></g></g></g></g></g></g></g></g></g><g><g><g><g><g><g><g><g><g><path d="m256.2 367.8c-16.101 0-29.2-13.1-29.2-29.2s13.099-29.199 29.2-29.199 29.2 13.099 29.2 29.199-13.099 29.2-29.2 29.2zm0-38.4c-5.073 0-9.2 4.127-9.2 9.199 0 5.073 4.127 9.2 9.2 9.2s9.2-4.127 9.2-9.2c.001-5.072-4.126-9.199-9.2-9.199z" fill="url(#SVGID_00000077292012691577061210000013451084035503143325_)"/></g></g></g></g></g></g></g></g></g><g><g><g><g><g><g><g><g><g><path d="m159.4 458.8c-16.101 0-29.2-13.1-29.2-29.2s13.1-29.2 29.2-29.2c16.101 0 29.2 13.099 29.2 29.199s-13.099 29.201-29.2 29.201zm0-38.4c-5.073 0-9.2 4.127-9.2 9.199 0 5.073 4.127 9.2 9.2 9.2s9.2-4.127 9.2-9.2c0-5.072-4.127-9.199-9.2-9.199z" fill="url(#SVGID_00000069387688619674637050000017193424493498576773_)"/></g></g></g></g></g></g></g></g></g><g><g><g><g><g><g><g><g><g><path d="m256.2 458.8c-16.101 0-29.2-13.1-29.2-29.2s13.099-29.199 29.2-29.199 29.2 13.099 29.2 29.199-13.099 29.2-29.2 29.2zm0-38.4c-5.073 0-9.2 4.127-9.2 9.199 0 5.073 4.127 9.2 9.2 9.2s9.2-4.127 9.2-9.2c.001-5.072-4.126-9.199-9.2-9.199z" fill="url(#SVGID_00000077292012691577061210000013451084035503143325_)"/></g></g></g></g></g></g></g></g></g><g><g><g><g><g><g><g><g><g><path d="m353 458.8c-16.101 0-29.2-13.1-29.2-29.2v-91c0-16.101 13.1-29.199 29.2-29.199s29.2 13.099 29.2 29.199v91c0 16.1-13.099 29.2-29.2 29.2zm0-129.4c-5.073 0-9.2 4.127-9.2 9.199v91c0 5.073 4.127 9.2 9.2 9.2s9.2-4.127 9.2-9.2v-91c0-5.072-4.127-9.199-9.2-9.199z" fill="url(#SVGID_00000026133856725944526660000007091007045036281520_)"/></g></g></g></g></g></g></g></g></g></g><g><g><g><g><g><g><g><g><g><g><path d="m373.333 167.4h-234.266c-5.523 0-10-4.477-10-10v-89.393c0-5.523 4.477-10 10-10h234.266c5.522 0 10 4.477 10 10v89.393c0 5.523-4.477 10-10 10zm-224.266-20h214.266v-69.393h-214.266z" fill="url(#SVGID_00000077292012691577061210000013451084035503143325_)"/></g></g></g></g></g></g></g></g></g><g><g><g><g><g><g><g><g><g><path d="m328.87 122.7c-11.748.296-13.544-17.782-1.959-19.8 14.142-2.565 16.32 19.548 1.959 19.8z" fill="url(#SVGID_00000052799180456826996930000015036841352574819716_)"/></g></g></g></g></g></g></g></g></g><g><g><g><g><g><g><g><g><g><path d="m285.67 122.7c-14.372-.247-12.193-22.363 1.951-19.8 11.582 2.006 9.796 20.093-1.951 19.8z" fill="url(#SVGID_00000175290763065455385790000014747513162212168122_)"/></g></g></g></g></g></g></g></g></g></g></g></svg>