<svg id="Layer_1" height="512" viewBox="0 0 512 512" width="512" xmlns="http://www.w3.org/2000/svg" xmlns:xlink="http://www.w3.org/1999/xlink" data-name="Layer 1"><linearGradient id="New_Gradient_Swatch" gradientUnits="userSpaceOnUse" x1="55.478" x2="456.522" y1="256" y2="256"><stop offset="0" stop-color="#f208fe"/><stop offset=".091" stop-color="#ea0ffd"/><stop offset=".234" stop-color="#d323fa"/><stop offset=".412" stop-color="#ae43f5"/><stop offset=".617" stop-color="#7b70ee"/><stop offset=".843" stop-color="#3aa9e6"/><stop offset="1" stop-color="#08d4df"/></linearGradient><path d="m421.916 369.653-43.232-16.811v-3.963a38.694 38.694 0 0 0 -38.651-38.65h-20.707v-8.271l32.512-.66c18.179-.384 36.219-8.643 47.082-21.555 8.2-9.753 11.746-21.559 9.972-33.227l-7.4-49.732a25.92 25.92 0 0 0 -6.275-38.711l-5-34.2c-5.626-38.5-22.513-70.6-48.835-92.843a132.664 132.664 0 0 0 -85.621-31.03h-.231c-57.8.1-121.586 38.445-133.776 123.9l-4.762 33.506c-.026.187-.042.373-.051.558a25.94 25.94 0 0 0 -6.3 38.983l-7.558 49.553c-1.776 11.686 1.763 23.491 9.967 33.242 10.865 12.914 28.918 21.175 47.116 21.559l32.48.66v8.271h-32.3a38.694 38.694 0 0 0 -38.651 38.65v8.482l-31.606 12.29c-21.025 8.158-34.61 28.6-34.61 52.078v59.468c-.001 16.983 13.242 30.8 29.521 30.8h124.073.024.03 93.717.031.023 124.074c16.3 0 29.55-13.815 29.55-30.8v-59.471c0-23.478-13.585-43.92-34.606-52.076zm-81.883-47.434a26.687 26.687 0 0 1 26.643 25.954l-36.829-14.321-1.813-.71c-2.79-1.1-5.641-2.219-8.7-3.116v-7.806zm-183.416-149.343v-7.561a21.4 21.4 0 0 0 15.363-20.5v-.1a92.243 92.243 0 0 0 83.468-55.515 85.369 85.369 0 0 0 77.725 49.594h6.619v6.023a21.427 21.427 0 0 0 15.562 20.52v7.544c0 37.244-16.334 76.425-44.886 98.989a6.014 6.014 0 0 0 -1.468 1.122 86.364 86.364 0 0 1 -53.018 17.989c-19.463 0-37.633-6.69-52.978-18.23a5.982 5.982 0 0 0 -1.551-1.192c-26.985-21.139-44.836-57.477-44.836-98.683zm43.183 167.762a6 6 0 0 0 4.943-6.21c-.049-.965-.105-2.058-.105-3.067v-43.073a98.072 98.072 0 0 0 102.7.332v42.741c0 1.123-.031 2.077-.1 2.914a6 6 0 0 0 4.94 6.364 48.326 48.326 0 0 1 8.87 2.65 66.132 66.132 0 0 1 -130.1 0 48.387 48.387 0 0 1 8.852-2.651zm189.946-68.614c-8.707 10.35-23.328 16.973-38.154 17.286l-32.264.655v-9.875c22.136-18.172 37.379-45.233 44.113-73.978h18.122a25.906 25.906 0 0 0 8.96-1.591l6.514 43.779c1.601 10.542-3.082 18.72-7.293 23.724zm-8.183-77.9h-15.823a143.72 143.72 0 0 0 1.605-21.246v-6.7h14.216a13.975 13.975 0 1 1 0 27.95zm-247.938-68.534c11.177-78.348 69.29-113.508 121.926-113.6h.2c52.793 0 111.124 35.108 122.6 113.618l4.181 28.6c-.322-.012-.645-.024-.97-.024h-20.212a9.369 9.369 0 0 1 -9.568-9.37v-8.021a10 10 0 0 0 -9.991-9.992h-8.618a73.487 73.487 0 0 1 -68.516-46.507 9.875 9.875 0 0 0 -9.266-6.317h-.113a9.889 9.889 0 0 0 -9.253 6.51 80.169 80.169 0 0 1 -74.852 52.239h-1.191a10 10 0 0 0 -9.992 9.991v2.1a9.379 9.379 0 0 1 -9.368 9.37h-20.211c-.286 0-.569.012-.853.021zm-3.214 40.582h14.216v6.7a151.844 151.844 0 0 0 1.493 21.246h-15.709a13.975 13.975 0 0 1 0-27.95zm30 123.138c-14.846-.313-29.479-6.938-38.188-17.29-4.21-5-8.891-13.18-7.289-23.717l6.671-43.73a25.847 25.847 0 0 0 8.8 1.539h17.905c6.858 30.3 22.858 56.292 44.33 73.7v10.151zm-26.729 59.569a26.691 26.691 0 0 1 26.66-26.66h32.3v7.812c-3.044.894-5.884 2.011-8.664 3.105l-1.826.715-48.467 18.849zm-66.214 132.321v-59.471c0-18.776 10.33-34.448 26.962-40.9l27.264-10.6v41.835a22.829 22.829 0 1 0 11.991 0v-46.5l33.739-13.119c4.2 21.265 10.078 48.311 16.788 77.19a6 6 0 0 0 11.68-2.715c-6.9-29.71-12.922-57.458-17.116-78.889l.832-.324a78.117 78.117 0 0 0 152.784 0l.809.314c-8.76 44.895-24.053 109.759-34.967 151.987h-84.491c-2.942-11.419-5.988-23.584-8.88-35.475a5.995 5.995 0 1 0 -11.65 2.834c2.653 10.912 5.436 22.048 8.151 32.641h-116.364c-9.667 0-17.532-8.438-17.532-18.808zm60.221-57.954a10.828 10.828 0 1 1 -10.814 10.843 10.855 10.855 0 0 1 10.814-10.843zm316.843 57.954c0 10.37-7.878 18.808-17.56 18.808h-116.357c10.727-41.759 25.28-103.6 33.938-147.572l22.14 8.609v54.911a34.475 34.475 0 0 0 -28.431 33.893v20.806a6 6 0 0 0 11.99 0v-20.806a22.437 22.437 0 0 1 44.873 0v20.806a6 6 0 0 0 11.99 0v-20.806a34.475 34.475 0 0 0 -28.431-33.893v-50.248l38.89 15.123c16.628 6.45 26.958 22.122 26.958 40.9z" fill="url(#New_Gradient_Swatch)"/></svg>