<?xml version="1.0" encoding="UTF-8" standalone="no"?>
<svg
   id="Capa_1"
   enable-background="new 0 0 512 512"
   viewBox="0 0 512 512"
   version="1.1"
   sodipodi:docname="programmer.svg"
   inkscape:version="1.3.2 (091e20e, 2023-11-25)"
   xmlns:inkscape="http://www.inkscape.org/namespaces/inkscape"
   xmlns:sodipodi="http://sodipodi.sourceforge.net/DTD/sodipodi-0.dtd"
   xmlns="http://www.w3.org/2000/svg"
   xmlns:svg="http://www.w3.org/2000/svg">
  <defs
     id="defs35" />
  <sodipodi:namedview
     id="namedview35"
     pagecolor="#ffffff"
     bordercolor="#000000"
     borderopacity="0.25"
     inkscape:showpageshadow="2"
     inkscape:pageopacity="0.0"
     inkscape:pagecheckerboard="0"
     inkscape:deskcolor="#d1d1d1"
     inkscape:zoom="0.4609375"
     inkscape:cx="256"
     inkscape:cy="254.91525"
     inkscape:window-width="1512"
     inkscape:window-height="916"
     inkscape:window-x="0"
     inkscape:window-y="38"
     inkscape:window-maximized="1"
     inkscape:current-layer="Capa_1" />
  <g
     id="g20"
     style="fill:#007bff;fill-opacity:1">
    <path
       d="m242.685 215.535c4.169 2.124 8.742 3.186 13.315 3.186s9.146-1.062 13.315-3.186c3.69-1.88 5.159-6.396 3.278-10.087-1.88-3.691-6.397-5.157-10.087-3.278-4.074 2.074-8.939 2.074-13.014 0-3.691-1.88-8.207-.413-10.087 3.278s-.411 8.207 3.28 10.087z"
       id="path1"
       style="fill:#007bff;fill-opacity:1" />
    <path
       d="m233.912 248.642c6.915 4.165 14.502 6.247 22.088 6.247s15.173-2.082 22.088-6.247c3.549-2.137 4.692-6.746 2.556-10.294-2.139-3.549-6.746-4.693-10.294-2.556-9.119 5.492-19.58 5.492-28.699 0-3.549-2.138-8.158-.993-10.294 2.556-2.137 3.548-.994 8.157 2.555 10.294z"
       id="path2"
       style="fill:#007bff;fill-opacity:1" />
    <path
       d="m306.133 153.029c2.511 0 4.964-1.261 6.383-3.553 2.182-3.521 1.095-8.144-2.428-10.324-10.148-6.285-25.456-6.284-35.604 0-3.522 2.181-4.609 6.803-2.428 10.324 2.181 3.523 6.806 4.609 10.324 2.428 5.277-3.267 14.534-3.268 19.812 0 1.229.762 2.593 1.125 3.941 1.125z"
       id="path3"
       style="fill:#007bff;fill-opacity:1" />
    <path
       d="m233.562 153.029c2.511 0 4.964-1.261 6.383-3.553 2.182-3.521 1.095-8.144-2.428-10.324-10.147-6.285-25.455-6.286-35.604 0-3.522 2.181-4.609 6.803-2.428 10.324 2.181 3.523 6.806 4.609 10.324 2.428 5.278-3.268 14.535-3.267 19.812 0 1.229.762 2.593 1.125 3.941 1.125z"
       id="path4"
       style="fill:#007bff;fill-opacity:1" />
    <path
       d="m284.786 170.309v11.675c0 4.143 3.357 7.5 7.5 7.5s7.5-3.357 7.5-7.5v-11.675c0-4.143-3.357-7.5-7.5-7.5s-7.5 3.357-7.5 7.5z"
       id="path5"
       style="fill:#007bff;fill-opacity:1" />
    <path
       d="m212.214 170.309v11.675c0 4.143 3.357 7.5 7.5 7.5s7.5-3.357 7.5-7.5v-11.675c0-4.143-3.357-7.5-7.5-7.5s-7.5 3.357-7.5 7.5z"
       id="path6"
       style="fill:#007bff;fill-opacity:1" />
    <path
       d="m221.704 365.205c-2.93-2.928-7.678-2.928-10.607 0l-25.347 25.347c-2.929 2.93-2.929 7.678 0 10.607l25.347 25.347c1.465 1.464 3.385 2.196 5.304 2.196s3.839-.732 5.304-2.196c2.929-2.93 2.929-7.678 0-10.607l-20.044-20.043 20.044-20.043c2.928-2.93 2.928-7.678-.001-10.608z"
       id="path7"
       style="fill:#007bff;fill-opacity:1" />
    <path
       d="m290.296 426.506c1.465 1.464 3.385 2.196 5.304 2.196s3.839-.732 5.304-2.196l25.347-25.347c2.929-2.93 2.929-7.678 0-10.607l-25.347-25.347c-2.93-2.928-7.678-2.928-10.607 0-2.929 2.93-2.929 7.678 0 10.607l20.044 20.043-20.044 20.043c-2.93 2.93-2.93 7.678-.001 10.608z"
       id="path8"
       style="fill:#007bff;fill-opacity:1" />
    <path
       d="m244.603 434.925c3.07 0 5.951-1.9 7.055-4.955l22.795-63.135c1.406-3.896-.611-8.194-4.508-9.602-3.895-1.406-8.194.611-9.602 4.508l-22.795 63.135c-1.406 3.896.611 8.194 4.508 9.602.84.303 1.701.447 2.547.447z"
       id="path9"
       style="fill:#007bff;fill-opacity:1" />
    <path
       d="m414.95 471.689v-139.179c0-13.934-11.331-25.27-25.26-25.27h-79.723v-35.18l8.872-7.766c3.117-2.729 3.433-7.467.704-10.583-2.729-3.118-7.467-3.432-10.583-.704l-24.459 21.408c-5.186 4.536-11.839 7.035-18.732 7.035h-19.539c-6.894 0-13.547-2.499-18.731-7.034l-33.479-29.3c-10.079-8.821-15.859-21.556-15.859-34.937v-75.837c2.062-.709 4.026-1.715 5.843-3.001 3.925-2.778 6.839-6.65 8.423-11.187l8.572-24.406c.835-2.382 2.565-4.255 4.872-5.271 2.399-1.069 5.058-1.007 7.444.072 27.231 11.538 58.437 11.502 85.637-.106 1.146-.486 2.333-.733 3.529-.733 3.83 0 7.26 2.433 8.532 6.042l8.561 24.401c2.378 6.777 7.724 11.922 14.267 14.18v75.847c0 6.513-1.334 12.824-3.966 18.762-1.679 3.786.03 8.217 3.817 9.896 3.786 1.679 8.217-.031 9.896-3.817 3.485-7.863 5.253-16.221 5.253-24.84v-11.667c19.741-9.285 32.299-28.896 32.299-50.983 0-7.799-3.334-14.832-8.648-19.756v-11.285c0-31.107-12.115-60.36-34.118-82.375-22.014-22-51.267-34.115-82.374-34.115-23.708 0-46.521 7.083-65.975 20.483-3.411 2.351-4.271 7.021-1.922 10.432 2.351 3.411 7.022 4.271 10.432 1.922 16.939-11.669 36.81-17.837 57.465-17.837 27.102 0 52.59 10.557 71.766 29.722 19.168 19.178 29.724 44.667 29.724 71.768v4.305c-1.081-.132-2.178-.208-3.294-.208-.02.001-12.862-.002-12.881.001-3.409-.01-6.457-2.177-7.588-5.4l-8.564-24.41c-3.386-9.61-12.502-16.067-22.683-16.067-3.222 0-6.382.648-9.405 1.933-23.549 10.051-50.562 10.056-74.112.009-6.096-2.595-13.073-2.581-19.142.101-6.059 2.67-10.789 7.786-12.978 14.032l-8.574 24.412c-.555 1.587-1.568 2.937-2.935 3.903-1.37.97-2.978 1.483-4.65 1.488-.009-.003-12.867 0-12.881-.001-1.116 0-2.213.076-3.294.208v-4.305c0-22.254 7.066-43.376 20.436-61.081 2.496-3.306 1.84-8.009-1.466-10.505-3.306-2.495-8.009-1.839-10.505 1.466-15.351 20.33-23.465 44.577-23.465 70.12v11.283c-5.314 4.924-8.648 11.957-8.648 19.756 0 22.085 12.558 41.698 32.299 50.981v11.669c0 17.706 7.647 34.554 20.98 46.224l17.892 15.658v35.179h-23.972c-4.143 0-7.5 3.357-7.5 7.5s3.357 7.5 7.5 7.5h211.63c5.657 0 10.26 4.606 10.26 10.27v138.23h-55.06c-4.143 0-7.5 3.357-7.5 7.5s3.357 7.5 7.5 7.5l64.74-.018c-.056 6.227-5.14 11.277-11.38 11.277h-284.5c-3.039 0-5.896-1.184-8.054-3.341-2.117-2.11-3.295-4.919-3.325-7.919h207.519c4.143 0 7.5-3.357 7.5-7.5s-3.357-7.5-7.5-7.5h-197.84v-138.23c0-5.663 4.603-10.27 10.26-10.27h20.75c4.143 0 7.5-3.357 7.5-7.5s-3.357-7.5-7.5-7.5h-20.75c-13.929 0-25.26 11.336-25.26 25.27v139.187c-5.644 2.115-9.68 7.55-9.68 13.924 0 7.06 2.747 13.687 7.727 18.653 4.983 4.982 11.607 7.727 18.653 7.727h284.5c14.546 0 26.38-11.834 26.38-26.38 0-3.956-1.54-7.686-4.376-10.542-1.533-1.523-3.342-2.658-5.304-3.39zm-48.811-324.16c0 13.671-6.556 26.048-17.299 33.679v-45.622h5.356c6.585.001 11.943 5.358 11.943 11.943zm-220.278 0c0-6.585 5.357-11.942 11.942-11.942h5.356v45.621c-10.741-7.632-17.298-20.009-17.298-33.679zm71.171 137.66.589.515c7.922 6.93 18.082 10.746 28.609 10.746h19.539c10.527 0 20.688-3.816 28.61-10.747l.588-.515v22.052h-77.936v-22.051z"
       id="path10"
       style="fill:#007bff;fill-opacity:1" />
    <path
       d="m476.182 272.237v-19.071c0-13.041-10.61-23.651-23.651-23.651-13.042 0-23.652 10.61-23.652 23.651v19.071c0 13.041 10.61 23.651 23.652 23.651 13.04.001 23.651-10.61 23.651-23.651zm-15 0c0 4.771-3.881 8.651-8.651 8.651s-8.652-3.881-8.652-8.651v-19.071c0-4.771 3.882-8.651 8.652-8.651s8.651 3.881 8.651 8.651z"
       id="path11"
       style="fill:#007bff;fill-opacity:1" />
    <path
       d="m400.56 295.889c4.143 0 7.5-3.357 7.5-7.5v-51.374c0-4.143-3.357-7.5-7.5-7.5s-7.5 3.357-7.5 7.5v51.374c0 4.142 3.357 7.5 7.5 7.5z"
       id="path12"
       style="fill:#007bff;fill-opacity:1" />
    <path
       d="m488.349 311.416c-13.041 0-23.651 10.61-23.651 23.651v19.07c0 13.042 10.61 23.652 23.651 23.652s23.651-10.609 23.651-23.651v-19.07c0-13.042-10.61-23.652-23.651-23.652zm8.651 42.722c0 4.771-3.881 8.652-8.651 8.652s-8.651-3.882-8.651-8.652v-19.07c0-4.771 3.881-8.651 8.651-8.651s8.651 3.881 8.651 8.651z"
       id="path13"
       style="fill:#007bff;fill-opacity:1" />
    <path
       d="m436.378 311.416c-4.143 0-7.5 3.357-7.5 7.5v51.374c0 4.143 3.357 7.5 7.5 7.5s7.5-3.357 7.5-7.5v-51.374c0-4.143-3.357-7.5-7.5-7.5z"
       id="path14"
       style="fill:#007bff;fill-opacity:1" />
    <path
       d="m504.5 229.515c-4.143 0-7.5 3.357-7.5 7.5v51.374c0 4.143 3.357 7.5 7.5 7.5s7.5-3.357 7.5-7.5v-51.374c0-4.143-3.357-7.5-7.5-7.5z"
       id="path15"
       style="fill:#007bff;fill-opacity:1" />
    <path
       d="m59.47 229.515c-13.041 0-23.651 10.61-23.651 23.651v19.071c0 13.041 10.61 23.651 23.651 23.651 13.042 0 23.652-10.61 23.652-23.651v-19.071c0-13.041-10.61-23.651-23.652-23.651zm8.652 42.722c0 4.771-3.882 8.651-8.652 8.651s-8.651-3.881-8.651-8.651v-19.071c0-4.771 3.881-8.651 8.651-8.651s8.652 3.881 8.652 8.651z"
       id="path16"
       style="fill:#007bff;fill-opacity:1" />
    <path
       d="m111.44 295.889c4.143 0 7.5-3.357 7.5-7.5v-51.374c0-4.143-3.357-7.5-7.5-7.5s-7.5 3.357-7.5 7.5v51.374c0 4.142 3.358 7.5 7.5 7.5z"
       id="path17"
       style="fill:#007bff;fill-opacity:1" />
    <path
       d="m23.651 311.416c-13.041 0-23.651 10.61-23.651 23.651v19.07c0 13.042 10.61 23.652 23.651 23.652s23.651-10.61 23.651-23.652v-19.07c.001-13.041-10.61-23.651-23.651-23.651zm8.652 42.722c0 4.771-3.881 8.652-8.651 8.652s-8.652-3.882-8.652-8.652v-19.07c0-4.771 3.881-8.651 8.651-8.651s8.651 3.881 8.651 8.651v19.07z"
       id="path18"
       style="fill:#007bff;fill-opacity:1" />
    <path
       d="m75.622 311.416c-4.143 0-7.5 3.357-7.5 7.5v51.374c0 4.143 3.357 7.5 7.5 7.5s7.5-3.357 7.5-7.5v-51.374c0-4.143-3.357-7.5-7.5-7.5z"
       id="path19"
       style="fill:#007bff;fill-opacity:1" />
    <path
       d="m7.5 295.889c4.143 0 7.5-3.357 7.5-7.5v-51.374c0-4.143-3.357-7.5-7.5-7.5s-7.5 3.357-7.5 7.5v51.374c0 4.142 3.357 7.5 7.5 7.5z"
       id="path20"
       style="fill:#007bff;fill-opacity:1" />
  </g>
  <g
     id="g21" />
  <g
     id="g22" />
  <g
     id="g23" />
  <g
     id="g24" />
  <g
     id="g25" />
  <g
     id="g26" />
  <g
     id="g27" />
  <g
     id="g28" />
  <g
     id="g29" />
  <g
     id="g30" />
  <g
     id="g31" />
  <g
     id="g32" />
  <g
     id="g33" />
  <g
     id="g34" />
  <g
     id="g35" />
</svg>
