<svg id="Layer_1" enable-background="new 0 0 550 550" viewBox="0 0 550 550" xmlns="http://www.w3.org/2000/svg" xmlns:xlink="http://www.w3.org/1999/xlink"><linearGradient id="SVGID_1_" gradientUnits="userSpaceOnUse" x1="274.986" x2="274.986" y1="19" y2="531"><stop offset="0" stop-color="#5d91f9"/><stop offset="1" stop-color="#c823ff"/></linearGradient><path d="m400 531h-250c-45.8 0-83-37.2-83-83v-.3c0-20.5 7.6-40.2 21.3-55.5l129.7-144.3v-188.9c0-4.4 3.6-8 8-8h96c4.4 0 8 3.6 8 8v188.9l131.4 144.3c30.8 33.9 28.4 86.4-5.5 117.2-15.4 13.9-35.3 21.6-55.9 21.6zm-166-464v184c0 2-.7 3.9-2.1 5.4l-131.7 146.6c-11 12.3-17.2 28.2-17.2 44.7v.3c0 37 30 67 67 67h250c37 0 67-30.1 66.9-67.1 0-16.6-6.2-32.7-17.4-45l-133.4-146.5c-1.3-1.5-2.1-3.4-2.1-5.4v-184zm104 0h-128c-4.4 0-8-3.6-8-8v-32c0-4.4 3.6-8 8-8h128c4.4 0 8 3.6 8 8v32c0 4.4-3.6 8-8 8zm-120-16h112v-16h-112zm128 255c-17.7 0-27-4.1-35.2-7.7-7.8-3.4-14.5-6.3-28.8-6.3s-21 2.9-28.8 6.3c-8.2 3.6-17.5 7.7-35.2 7.7-15.9 0-25-3.3-32.2-6.4-4-1.9-5.6-6.7-3.7-10.7 1.8-3.7 6.1-5.4 9.9-4 6.3 2.7 13.1 5.1 26 5.1 14.3 0 21-2.9 28.8-6.3 8.2-3.6 17.5-7.7 35.2-7.7s27 4.1 35.2 7.7c7.8 3.4 14.5 6.3 28.8 6.3 5.2.1 10.3-.5 15.4-1.5 4.2-1.3 8.7 1 10 5.2s-1 8.7-5.2 10c-.4.1-.8.2-1.2.3-6.2 1.4-12.6 2.1-19 2zm64 105c-2.3 0-4.4-1-6-2.6l-72-80c-3-3.3-2.7-8.3.6-11.3s8.3-2.7 11.3.6l72 80c3 3.3 2.7 8.3-.6 11.3-1.4 1.3-3.3 2-5.3 2zm16 24c-2.1 0-4.2-.8-5.7-2.3-.4-.4-.7-.8-1-1.2s-.5-.9-.7-1.4-.4-1-.5-1.5c-.2-1-.2-2.1 0-3.1.1-.5.3-1 .5-1.5s.4-.9.7-1.4c.6-.9 1.3-1.6 2.2-2.2.4-.3.9-.5 1.4-.7 2-.8 4.2-.8 6.1 0 .5.2.9.4 1.4.7.9.6 1.6 1.3 2.2 2.2.3.4.5.9.7 1.4s.4 1 .5 1.5c.2 1 .2 2.1 0 3.1-.1.5-.3 1-.5 1.5s-.4.9-.7 1.4c-.6.9-1.3 1.6-2.2 2.2-.4.3-.9.5-1.4.7s-1 .4-1.5.5c-.5 0-1 .1-1.5.1zm-176-336h-24c-4.4 0-8-3.6-8-8s3.6-8 8-8h24c4.4 0 8 3.6 8 8s-3.6 8-8 8zm0 32h-24c-4.4 0-8-3.6-8-8s3.6-8 8-8h24c4.4 0 8 3.6 8 8s-3.6 8-8 8zm0 32h-24c-4.4 0-8-3.6-8-8s3.6-8 8-8h24c4.4 0 8 3.6 8 8s-3.6 8-8 8zm0 32h-24c-4.4 0-8-3.6-8-8s3.6-8 8-8h24c4.4 0 8 3.6 8 8s-3.6 8-8 8zm0 32h-24c-4.4 0-8-3.6-8-8s3.6-8 8-8h24c4.4 0 8 3.6 8 8s-3.6 8-8 8zm0 32h-24c-4.4 0-8-3.6-8-8s3.6-8 8-8h24c4.4 0 8 3.6 8 8s-3.6 8-8 8zm-96 216c-13.3 0-24-10.7-24-24s10.7-24 24-24 24 10.7 24 24-10.7 24-24 24zm0-32c-4.4 0-8 3.6-8 8s3.6 8 8 8 8-3.6 8-8-3.6-8-8-8zm64 8c-13.3 0-24-10.7-24-24s10.7-24 24-24 24 10.7 24 24-10.7 24-24 24zm0-32c-4.4 0-8 3.6-8 8s3.6 8 8 8 8-3.6 8-8-3.6-8-8-8zm104 50c-13.3 0-24-10.7-24-24s10.7-24 24-24 24 10.7 24 24-10.7 24-24 24zm0-32c-4.4 0-8 3.6-8 8s3.6 8 8 8 8-3.6 8-8-3.6-8-8-8zm-64-50c-13.3 0-24-10.7-24-24s10.7-24 24-24 24 10.7 24 24-10.7 24-24 24zm0-32c-4.4 0-8 3.6-8 8s3.6 8 8 8 8-3.6 8-8-3.6-8-8-8z" fill="url(#SVGID_1_)"/></svg>