<svg height="511pt" viewBox="1 -20 511.99897 511" width="511pt" xmlns="http://www.w3.org/2000/svg"><path d="m449.398438 72.75h-94.582032v-26.183594c0-25.402344-20.664062-46.066406-46.066406-46.066406h-105.5c-25.402344 0-46.066406 20.664062-46.066406 46.066406v26.183594h-94.582032c-34.519531 0-62.601562 28.082031-62.601562 62.601562v274.179688c0 34.519531 28.082031 62.605469 62.601562 62.605469h386.796876c34.515624 0 62.601562-28.085938 62.601562-62.605469v-274.179688c0-34.519531-28.082031-62.601562-62.601562-62.601562zm-261.183594-26.183594c0-8.289062 6.746094-15.035156 15.035156-15.035156h105.5c8.289062 0 15.035156 6.746094 15.035156 15.035156v26.183594h-135.570312zm261.183594 394.539063h-386.796876c-17.40625 0-31.570312-14.164063-31.570312-31.574219v-113.917969c9.464844 5.640625 20.511719 8.890625 32.308594 8.890625h151.246094v5.207032c0 22.835937 18.578124 41.414062 41.414062 41.414062s41.414062-18.578125 41.414062-41.414062v-5.207032h151.246094c11.796875 0 22.84375-3.25 32.308594-8.890625v113.917969c0 17.410156-14.164062 31.574219-31.570312 31.574219zm-183.015626-131.394531c0 5.726562-4.65625 10.382812-10.382812 10.382812s-10.382812-4.65625-10.382812-10.382812v-41.441407c0-5.726562 4.65625-10.382812 10.382812-10.382812s10.382812 4.65625 10.382812 10.382812zm182.277344-36.234376h-151.246094v-5.207031c0-22.835937-18.578124-41.414062-41.414062-41.414062s-41.414062 18.578125-41.414062 41.414062v5.207031h-151.246094c-17.816406 0-32.308594-14.496093-32.308594-32.3125v-105.8125c0-17.40625 14.164062-31.570312 31.570312-31.570312h386.796876c17.40625 0 31.570312 14.164062 31.570312 31.570312v105.8125c0 17.816407-14.492188 32.3125-32.308594 32.3125zm0 0"/></svg>