<svg id="Capa_1" enable-background="new 0 0 512 512" height="512" viewBox="0 0 512 512" width="512" xmlns="http://www.w3.org/2000/svg"><g><path d="m406 256c0-31.742-9.735-61.876-28.21-87.485v-.003l-141.79-20v254.006l100.499-20c43.087-27.485 69.501-75.171 69.501-126.518z" fill="#ffe666"/><path d="m271 382.518v-95.784l38.03-38.03-21.213-21.213-31.817 31.817-10 133.21z" fill="#ffbf80"/><path d="m256 148.512-121.788 20c-18.476 25.61-28.212 55.744-28.212 87.488 0 51.347 26.414 99.033 69.501 126.518l80.499 20z" fill="#ffffb3"/><path d="m202.97 248.704 38.03 38.03v95.784l15 10v-133.21l-31.817-31.817z" fill="#ffe666"/><path d="m236 442.518 100.5-20-.001-40h-80.499z" fill="#cfcfe6"/><path d="m175.501 382.518-.001 40 80.5 20v-60z" fill="#ece6f2"/><path d="m336.5 431.499v-8.981h-80.5l-20 40.482 20 49c44.388 0 80.5-36.112 80.5-80.501z" fill="#ece6f2"/><path d="m175.5 431.5c0 44.388 36.112 80.5 80.5 80.5v-89.482h-80.5z" fill="#fff5f5"/><path d="m256 168.512h121.79l-.002-40-141.788-20z" fill="#17294d"/><path d="m256 108.512-121.787 20-.001 40h121.788z" fill="#284866"/><path d="m377.788 128.512-.005-113.513h-141.783l20 113.513z" fill="#284866"/><path d="m134.215 14.999h121.785v113.513h-121.785z" fill="#406a80"/><g fill="#ffe666"><path d="m74.217 15h30v90h-30z"/><path d="m36.628 130.2h30v61h-30z" transform="matrix(.423 -.906 .906 .423 -115.834 139.574)"/><path d="m0 241h61v30h-61z"/><path d="m21.128 336.3h61v30h-61z" transform="matrix(.906 -.423 .423 .906 -143.629 54.733)"/><path d="m445.372 320.8h30v61h-30z" transform="matrix(.423 -.906 .906 .423 -52.578 620.069)"/><path d="m451 241h61v30h-61z"/><path d="m429.872 145.7h61v30h-61z" transform="matrix(.906 -.423 .423 .906 -24.781 209.619)"/></g><path d="m452.783 0h-196.783l-10 14.999 10 15.001h196.783z" fill="#17294d"/><path d="m44.217 0h211.783v30h-211.783z" fill="#284866"/></g></svg>