<svg id="Layer_1" height="512" viewBox="0 0 32 32" width="512" xmlns="http://www.w3.org/2000/svg"><path d="m5.6465 26.3535c.0976.0977.2256.1465.3535.1465s.2559-.0488.3535-.1465l9.6465-9.6465 9.6465 9.6465c.0976.0977.2256.1465.3535.1465s.2559-.0488.3535-.1465c.1953-.1953.1953-.5117 0-.707l-9.6465-9.6465 9.6465-9.6465c.1953-.1953.1953-.5117 0-.707s-.5117-.1953-.707 0l-9.6465 9.6465-9.6465-9.6465c-.1953-.1953-.5117-.1953-.707 0s-.1953.5117 0 .707l9.6465 9.6465-9.6465 9.6465c-.1953.1953-.1953.5117 0 .707z"/></svg>