<svg id="glipy_copy" data-name="glipy copy" xmlns="http://www.w3.org/2000/svg" xmlns:xlink="http://www.w3.org/1999/xlink" viewBox="0 0 64 64"><defs><style>.cls-1{fill:url(#linear-gradient);}</style><linearGradient id="linear-gradient" x1="4" y1="32" x2="60" y2="32" gradientUnits="userSpaceOnUse"><stop offset="0" stop-color="#00c0ff"/><stop offset="1" stop-color="#5558ff"/></linearGradient></defs><title>1</title><path class="cls-1" d="M31,14.578v-4a1,1,0,0,1,2,0v4a1,1,0,1,1-2,0ZM18.74512,19.30509a1.00028,1.00028,0,0,0,1.789-.89459l-1.81928-3.64008a1.0003,1.0003,0,0,0-1.789.89459Zm25.168.44727a1.00187,1.00187,0,0,0,1.34179-.44727L47.07422,15.665a1.00011,1.00011,0,0,0-1.78906-.89453l-1.81934,3.64014A1,1,0,0,0,43.91309,19.75236ZM60,24.74863v23.56H57.1a2.00589,2.00589,0,0,1-2-1.99994c-.00165-.0307.00225-18.31525,0-18.32007v-1.24a1.99947,1.99947,0,0,1,2-2Zm-1.45,2.82a1.00011,1.00011,0,0,0-2,0v2.5899a1.00011,1.00011,0,0,0,2,.00007Zm-23.46,2.06-10.48,4.8a1.36787,1.36787,0,0,0-.78,1.11c-.01978,1.9292,3.21026,2.35968,4.66992,1.63l8.05005-3.49a.99686.99686,0,0,1,1.36.64c.04.12,1.16,3.32,7.41,2.94a.997.997,0,0,1,1.06.93c.04535,1.39411-1.75915,1.06415-2.63,1.08l1.3,1.02a3.77509,3.77509,0,0,1,.54992,5.38l7.50007-.03v-16.64H37.93A6.74707,6.74707,0,0,0,35.09,29.62864Zm4.08,8.61a6.70639,6.70639,0,0,1-2.69-2.35l-7.18,3.11a6.13253,6.13253,0,0,1-2.48.52c-2.322.02167-5.26508-1.47357-4.98-4.16009a3.31529,3.31529,0,0,1,1.93-2.73993l4.37-2.01a6.36258,6.36258,0,0,0-4.06-1.60993l-13.39-.00006v16.65h2.27a4.316,4.316,0,0,1,2.52.8c4.44,3.12,8.57,5.93,11.31,7.69a1.76125,1.76125,0,0,0,2.04-2.86011c-.7074-.56531-2.86786-2.29474-3.53-2.8299a.99957.99957,0,0,1,1.25006-1.56l5.79,4.63995a1.78824,1.78824,0,1,0,2.15991-2.85l-4.34-3.47992a.99975.99975,0,0,1,1.25006-1.56l4.42,3.54c.89727.72162,1.94323,1.84406,3.19,1.09a1.7887,1.7887,0,0,0,.25995-2.9l-4.25995-3.4a1.00681,1.00681,0,0,1,1.26007-1.56994l4.2099,3.36c.18646.1662.75513.64191.96008.8,1.93878,1.41156,4.2378-1.01263,2.35993-2.71014Zm-30.48-11.49v19.56a2.00591,2.00591,0,0,1-2,2H4v-23.56H6.69A1.99947,1.99947,0,0,1,8.69,26.74863Zm-1.34.82a1,1,0,0,0-2,0v2.5899a1.00011,1.00011,0,0,0,2,.00007Z"/></svg>