<?xml version="1.0" encoding="UTF-8" standalone="no"?>
<!-- Created with Inkscape (http://www.inkscape.org/) -->

<svg
   version="1.1"
   id="svg1"
   width="3247.2246"
   height="2102.0852"
   viewBox="0 0 3247.2246 2102.0852"
   sodipodi:docname="website-review.svg"
   inkscape:version="1.3.2 (091e20e, 2023-11-25)"
   xmlns:inkscape="http://www.inkscape.org/namespaces/inkscape"
   xmlns:sodipodi="http://sodipodi.sourceforge.net/DTD/sodipodi-0.dtd"
   xmlns="http://www.w3.org/2000/svg"
   xmlns:svg="http://www.w3.org/2000/svg">
  <sodipodi:namedview
     id="namedview1"
     pagecolor="#ffffff"
     bordercolor="#000000"
     borderopacity="0.25"
     inkscape:showpageshadow="2"
     inkscape:pageopacity="0.0"
     inkscape:pagecheckerboard="0"
     inkscape:deskcolor="#d1d1d1"
     inkscape:zoom="0.23404602"
     inkscape:cx="1623.6123"
     inkscape:cy="1051.0753"
     inkscape:window-width="1920"
     inkscape:window-height="1027"
     inkscape:window-x="0"
     inkscape:window-y="25"
     inkscape:window-maximized="1"
     inkscape:current-layer="group-R5" />
  <defs
     id="defs1" />
  <g
     id="g1"
     transform="translate(-376.3876,-333.37198)">
    <g
       id="group-R5">
      <path
         id="path3"
         d="m 24953.4,14941.8 -2.7,29.9 c 50.2,4.6 101,6.9 150.9,6.9 h 10.3 l -0.1,-30 h -10.2 c -49,0 -98.8,-2.3 -148.2,-6.8 z m -311.3,-58.3 -8.2,28.8 c 51.6,14.8 104.5,27.2 157,37.1 l 5.5,-29.5 c -51.6,-9.7 -103.5,-21.9 -154.3,-36.4 z m -295.7,-113.8 -13.2,26.9 c 48.1,23.7 97.9,45.4 147.7,64.6 l 10.8,-28 c -49,-18.9 -97.9,-40.3 -145.3,-63.5 z m -271.1,-164.3 -17.8,24.2 c 43.1,31.6 88.2,61.8 134.1,89.6 l 15.6,-25.7 c -45.2,-27.3 -89.6,-57 -131.9,-88.1 z m -237.3,-209.9 -21.9,20.5 c 36.6,38.8 75.5,76.6 115.9,112.3 l 19.8,-22.5 c -39.6,-35 -77.9,-72.2 -113.8,-110.3 z m -193.9,-250.3 -25.4,16 12.9,20.2 c 24.8,38.1 51.6,75.8 79.7,112 l 23.7,-18.4 c -27.6,-35.6 -53.9,-72.6 -78.2,-110 z m -119.1,-288.1 -29.6,4.7 c 1.9,12.2 4.2,24.4 7,36.7 l -1.6,-0.4 -6.1,29.4 c 5.4,1.1 10.7,2.2 16,3.2 8.1,28.6 18.6,57.6 31.5,87.5 l 27.6,-11.8 c -10.3,-23.8 -18.9,-46.8 -26,-69.5 41.6,7.2 77.9,11.2 111.7,12.5 l 1.1,-30 c -36.2,-1.4 -75.5,-6.1 -121.8,-14.6 -4,-16 -7.3,-31.9 -9.8,-47.7 z m 409.2,-39.7 c -22.4,25.9 -49.2,47.5 -77.6,62.6 -15,8 -31,14.8 -47.5,20.4 l 9.6,28.4 c 18,-6 35.6,-13.6 52,-22.3 31.6,-16.8 61.4,-40.8 86.2,-69.4 z m -737.3,-9.2 -11.2,27.9 c 49,19.5 100.3,37.2 152.6,52.6 l 8.4,-28.8 c -51.3,-15.1 -101.8,-32.5 -149.8,-51.7 z m -279,-148.1 -16.8,24.8 c 44.1,30.1 90.7,58.2 138.2,83.4 l 14.1,-26.5 c -46.6,-24.7 -92.2,-52.2 -135.5,-81.7 z m 644.5,-114.7 c -31,42.8 -53.3,95.4 -64.6,152 l 29.4,5.9 c 10.5,-52.5 31.1,-101 59.5,-140.4 z m 436.9,-20.2 -13.8,6.4 -11.8,9.3 c 19.8,30.4 29.6,64.7 29.6,102.5 0,12.8 -1.2,25.9 -3.5,39 l 29.6,5.2 c 2.6,-14.8 3.9,-29.7 3.9,-44.2 0,-43.7 -11.5,-83.5 -34,-118.2 z m -1321,-71 -21.9,20.6 c 37.3,39.6 76.5,77.3 116.5,111.7 l 19.6,-22.7 c -39.2,-33.8 -77.7,-70.7 -114.2,-109.6 z m 1116.4,-30.8 c -34.9,0 -70.2,6.4 -102,18.6 l 10.7,28 c 46.2,-17.6 100.4,-21.4 148.6,-10.1 l 6.8,-29.2 c -20.8,-4.8 -42.3,-7.3 -64.1,-7.3 z m -1310,-219.7 -25.2,16.2 c 29.5,46.1 60.6,90.4 92.6,131.9 l 23.7,-18.3 c -31.4,-40.8 -62,-84.5 -91.1,-129.8 z m -151.1,-279.2 -27.3,12.5 c 22.6,49.6 46.7,98 71.6,144.1 l 26.4,-14.3 c -24.5,-45.4 -48.3,-93.3 -70.7,-142.3 z m -116.6,-296 -28.5,9.6 c 17.5,51.8 36,102.6 55,150.9 l 27.9,-10.9 c -18.8,-47.9 -37.1,-98.3 -54.4,-149.6 z m -52,-166.4 -28.8,8.3 4.2,14.5 28.8,-8.4 -4.2,-14.4"
         style="fill:#708cd5;fill-opacity:1;fill-rule:nonzero;stroke:none"
         transform="matrix(0.13333333,0,0,-0.13333333,0,2666.6667)" />
      <path
         id="path4"
         d="m 26221.1,14582.3 h -895.6 c -227.6,0 -412.2,184.5 -412.2,412.2 0,227.6 184.6,412.2 412.2,412.2 h 895.6 c 227.7,0 412.2,-184.6 412.2,-412.2 0,-227.7 -184.5,-412.2 -412.2,-412.2"
         style="fill:#d3dfff;fill-opacity:1;fill-rule:nonzero;stroke:none"
         transform="matrix(0.13333333,0,0,-0.13333333,0,2666.6667)" />
      <path
         id="path5"
         d="m 25473.3,14994.5 c 0,-58 -47,-105 -105,-105 -58,0 -105,47 -105,105 0,58 47,105 105,105 58,0 105,-47 105,-105"
         style="fill:#ffffff;fill-opacity:1;fill-rule:nonzero;stroke:none"
         transform="matrix(0.13333333,0,0,-0.13333333,0,2666.6667)" />
      <path
         id="path6"
         d="m 25878.3,14994.5 c 0,-58 -47,-105 -105,-105 -58,0 -105,47 -105,105 0,58 47,105 105,105 58,0 105,-47 105,-105"
         style="fill:#ffffff;fill-opacity:1;fill-rule:nonzero;stroke:none"
         transform="matrix(0.13333333,0,0,-0.13333333,0,2666.6667)" />
      <path
         id="path7"
         d="m 26283.3,14994.5 c 0,-58 -47,-105 -105,-105 -58,0 -105,47 -105,105 0,58 47,105 105,105 58,0 105,-47 105,-105"
         style="fill:#ffffff;fill-opacity:1;fill-rule:nonzero;stroke:none"
         transform="matrix(0.13333333,0,0,-0.13333333,0,2666.6667)" />
      <path
         id="path8"
         d="m 6597.25,13997.4 -1.18,30 c 53.38,2.1 106.96,2.6 160.71,1.9 l -0.43,-30 c -53.15,0.7 -106.25,0.2 -159.1,-1.9 z m 477.24,-16 c -56.23,5.1 -108.22,9.1 -158.98,12 l 1.72,30 c 51.11,-3 103.43,-7 160,-12.1 z m -793.2,-17.4 -5.2,29.5 c 52.95,9.3 106.59,16.8 159.42,22.4 l 3.16,-29.8 c -52.17,-5.5 -105.13,-13 -157.38,-22.1 z m 1110.39,-19.4 c -52.83,7 -105.68,13.8 -158.5,20 l 3.52,29.8 c 52.97,-6.2 105.98,-13 158.96,-20.1 z m 1751.13,-29.3 -9.18,28.6 c 50.49,16.2 100.33,35.1 148.11,56 l 12.03,-27.4 c -48.69,-21.4 -99.49,-40.6 -150.96,-57.2 z m -1434.27,-15.4 -158.46,22.6 4.22,29.7 158.45,-22.6 z m -1735.9,-11.5 -9.03,28.5 c 51.02,16.2 103.17,30.8 154.96,43.5 l 7.15,-29.1 c -51.17,-12.6 -102.67,-27 -153.08,-42.9 z m 2053.73,-30.3 c -52.87,6.1 -105.94,12.8 -159.12,19.9 l 3.94,29.7 c 53.03,-7 105.9,-13.7 158.61,-19.8 z m 801.83,-12.4 -3.94,29.8 c 53.4,7 105.99,16.2 156.33,27.2 l 6.4,-29.3 c -51.13,-11.2 -104.57,-20.5 -158.79,-27.7 z m -481.83,-15.1 c -51.27,2.6 -103.71,6.3 -160.3,11.2 l 2.62,29.9 c 56.21,-4.9 108.28,-8.6 159.16,-11.1 z m 166.27,-4.3 h -5.61 v 30 h 5.61 c 52.69,0 104.31,1.5 153.45,4.3 l 1.76,-29.9 c -49.72,-2.9 -101.95,-4.4 -155.21,-4.4 z m -2836.23,-53.1 -12.66,27.2 c 48.65,22.6 98.48,43.8 148.07,63.1 l 10.86,-27.9 c -48.99,-19.1 -98.21,-40.1 -146.27,-62.4 z m -279.24,-151.9 -15.98,25.4 c 45.22,28.4 91.94,55.8 138.87,81.3 l 14.33,-26.3 c -46.36,-25.3 -92.53,-52.3 -137.22,-80.4 z m -257.76,-186.1 -19.06,23.2 c 41.15,33.9 84.03,67 127.42,98.3 l 17.54,-24.4 c -42.87,-30.9 -85.23,-63.6 -125.9,-97.1 z m -231.71,-217.5 -21.92,20.5 c 36.33,38.9 74.57,77.2 113.67,113.9 l 20.55,-21.9 c -38.63,-36.3 -76.43,-74.1 -112.3,-112.5 z m -200.86,-246.2 -24.5,17.4 c 30.8,43.4 63.62,86.5 97.52,128.1 l 23.25,-19 c -33.5,-41 -65.88,-83.6 -96.27,-126.5 z m -165.3,-271.3 -26.64,13.9 c 24.73,47.6 51.31,94.8 78.97,140.3 l 25.62,-15.6 c -27.3,-44.9 -53.53,-91.5 -77.95,-138.6 z m -127.15,-291.2 -28.24,10.2 c 18.17,50.4 38.17,100.7 59.48,149.5 l 27.5,-12 c -21.04,-48.2 -40.81,-97.9 -58.74,-147.7 z m -88.18,-305.3 -29.3,6.4 c 11.53,52.2 24.87,104.7 39.65,156 l 28.83,-8.3 c -14.63,-50.7 -27.79,-102.5 -39.18,-154.1 z m -48.59,-314.2 -29.89,2.7 c 4.81,53.1 11.37,106.8 19.54,159.7 l 29.64,-4.6 c -8.06,-52.2 -14.55,-105.4 -19.29,-157.8 z m -38.42,-318.9 c -1.17,31.2 -1.74,62.3 -1.76,93.6 0,22.4 0.29,44.9 0.9,67.3 l 30,-0.8 c -0.61,-22.2 -0.9,-44.3 -0.9,-66.5 0.02,-30.9 0.59,-61.7 1.72,-92.5 z m 32.73,-320 c -8.9,52.6 -16.15,106.2 -21.58,159.5 l 29.85,3 c 5.35,-52.6 12.53,-105.6 21.3,-157.5 z m 74.71,-313.1 c -15.86,50.9 -30.21,103.2 -42.64,155.3 l 29.18,7 c 12.27,-51.5 26.45,-103.1 42.09,-153.3 z m 115.9,-300 c -22.48,48.8 -43.61,98.6 -62.79,148.1 l 27.96,10.9 c 18.97,-49 39.85,-98.2 62.06,-146.4 z m 151.8,-283.1 c -28.19,46 -55.14,92.9 -80.08,139.3 l 26.44,14.2 c 24.67,-46 51.31,-92.3 79.22,-137.9 z m 182.28,-264.7 c -32.81,42.8 -64.65,86.6 -94.57,130 l 24.69,17 c 29.65,-43 61.17,-86.3 93.71,-128.8 z m 206.84,-246 c -36.51,39.9 -72.21,80.4 -106.12,120.7 l 22.93,19.3 c 33.66,-39.9 69.09,-80.2 105.3,-119.6 z m 225.8,-228.3 c -39.06,36.8 -77.74,74.6 -114.94,112.1 l 21.29,21.1 c 36.97,-37.3 75.41,-74.8 114.23,-111.4 z m 240.02,-213.2 c -41.06,34.5 -81.58,69.4 -121.55,104.9 l 19.93,22.4 c 39.72,-35.2 80.05,-70 120.91,-104.3 z m 250.45,-200.4 c -42.48,32.5 -84.63,65.4 -126.33,98.8 l 18.75,23.4 c 41.54,-33.2 83.49,-66 125.82,-98.4 z m 257.79,-190.6 c -43.44,31.1 -86.68,62.5 -129.67,94.3 l 17.85,24.1 c 42.84,-31.7 85.96,-63 129.28,-94 z m 262.64,-183.3 c -43.99,30.1 -87.93,60.3 -131.8,90.9 l 17.15,24.6 c 43.79,-30.5 87.65,-60.7 131.56,-90.7 z m 265.29,-179 c -44.18,29.5 -88.48,59.2 -132.85,89.1 l 16.76,24.9 c 44.33,-29.9 88.63,-59.5 132.77,-89.1 l -16.68,-24.9"
         style="fill:#708cd5;fill-opacity:1;fill-rule:nonzero;stroke:none"
         transform="matrix(0.13333333,0,0,-0.13333333,0,2666.6667)" />
      <path
         id="path9"
         d="m 17170.5,8097.3 -29.6,4.3 c 7.6,53 17.1,106.3 28.4,158.4 l 29.3,-6.3 c -11.1,-51.4 -20.5,-104.1 -28.1,-156.4 z m -23.5,-316.9 -30,0.2 c 0.4,53.9 2.6,108 6.5,160.8 l 29.9,-2.1 c -3.8,-52.3 -6,-105.7 -6.4,-158.9 z m -12,-320.9 c -6.4,53.5 -11.1,107.5 -14.1,160.2 l 30,1.7 c 2.9,-52.1 7.6,-105.5 13.8,-158.4 z m 57,-316.6 c -12.6,51.9 -23.8,104.9 -33.2,157.4 l 29.5,5.3 c 9.3,-51.9 20.4,-104.3 32.8,-155.7 z m 93.5,-307.7 c -18.5,50.3 -35.7,101.6 -51.2,152.5 l 28.7,8.7 c 15.3,-50.4 32.3,-101.1 50.6,-150.9 z m 128.1,-295 c -23.9,47.3 -46.9,96.3 -68.3,145.6 l 27.5,12 c 21.2,-48.8 43.9,-97.3 67.6,-144.1 z m 4824.1,-232.1 -18.6,23.5 c 41.6,33.1 83,66.7 124.1,100.5 l 19.1,-23.1 c -41.3,-34 -82.8,-67.6 -124.6,-100.9 z m -4662.4,-46.2 c -29.6,44.5 -58.2,90.6 -85,136.7 l 26,15.1 c 26.4,-45.7 54.7,-91.2 84,-135.3 z m 4407.9,-148.7 -17.7,24.2 c 42.7,31.5 85.3,63.4 127.7,95.9 l 18.2,-23.8 c -42.5,-32.6 -85.2,-64.7 -128.2,-96.3 z m -4213.4,-107.6 c -34.7,40.1 -68.8,82.1 -101.4,125.1 l 23.9,18.1 c 32.2,-42.4 65.9,-84 100.2,-123.5 z m 3950.9,-76.5 -16.7,24.9 c 44.2,29.5 88.1,59.6 131.7,90.2 l 17.3,-24.5 c -43.9,-30.8 -88,-61 -132.3,-90.6 z m -3723.5,-151.3 c -40.1,34.7 -79.7,71.7 -117.8,109.9 l 21.3,21.2 c 37.5,-37.7 76.6,-74.2 116.1,-108.4 z m 3452.1,-19.7 -15.3,25.8 c 45.6,27.1 91,54.8 136.2,83.3 l 16,-25.4 c -45.4,-28.6 -91,-56.5 -136.9,-83.7 z m -281,-154.9 -13.7,26.7 c 46.7,23.7 94,48.9 140.9,74.8 l 14.5,-26.3 c -47.1,-26 -94.8,-51.3 -141.7,-75.2 z m -2913.5,-18.5 c -44.9,29.1 -89.4,60.1 -132.1,92.2 l 17.9,24 c 42.3,-31.7 86.2,-62.3 130.5,-91 z m 2622.6,-117.2 -11.7,27.7 c 48.2,20.3 97.2,42.1 145.7,64.7 l 12.7,-27.2 c -48.8,-22.8 -98.2,-44.7 -146.7,-65.2 z m -2341,-38.7 c -48.3,22.6 -96.6,47.2 -143.4,73.2 l 14.5,26.2 c 46.3,-25.6 93.9,-49.9 141.7,-72.2 z m 2040.4,-74.1 -9.3,28.5 c 49.9,16.4 100.5,34.2 150.2,52.9 l 10.6,-28.1 c -50.2,-18.9 -101.2,-36.8 -151.5,-53.3 z m -1740.2,-42.1 c -51.3,16 -102.5,33.9 -152,53.1 l 10.8,28 c 49,-19 99.5,-36.6 150.1,-52.5 z m 1430.6,-43.8 -6.6,29.3 c 18.6,4.2 37.2,8.6 55.8,13.1 33,8.2 65.9,16.8 98.6,25.9 l 8,-28.9 c -33,-9.2 -66.1,-17.9 -99.4,-26.1 -18.8,-4.6 -37.6,-9 -56.4,-13.3 z m -1118.1,-32.4 c -52.8,9.4 -105.8,20.5 -157.5,33.1 l 7.2,29.1 c 51,-12.4 103.3,-23.4 155.6,-32.6 z m 801.3,-21.6 -3.4,29.8 c 52,6.1 105,13.6 157.6,22.6 l 5,-29.6 c -53.1,-9 -106.7,-16.7 -159.2,-22.8 z m -481.8,-15 c -53.1,2.8 -107,7.4 -160.2,13.4 l 3.4,29.9 c 52.6,-6 105.9,-10.6 158.5,-13.4 z m 160.8,-4.2 -0.1,30 c 52.4,0.2 105.9,1.9 159.1,5.1 l 1.8,-30 c -53.8,-3.2 -107.9,-4.9 -160.8,-5.1"
         style="fill:#708cd5;fill-opacity:1;fill-rule:nonzero;stroke:none"
         transform="matrix(0.13333333,0,0,-0.13333333,0,2666.6667)" />
      <path
         id="path10"
         d="m 10081.7,4786.7 c 0,-58 -47,-105 -105.03,-105 -57.99,0 -105,47 -105,105 0,58 47.01,105 105,105 58.03,0 105.03,-47 105.03,-105"
         style="fill:#d3dfff;fill-opacity:1;fill-rule:nonzero;stroke:none"
         transform="matrix(0.13333333,0,0,-0.13333333,0,2666.6667)" />
      <path
         id="path11"
         d="m 10486.7,4786.7 c 0,-58 -47,-105 -105,-105 -58,0 -105,47 -105,105 0,58 47,105 105,105 58,0 105,-47 105,-105"
         style="fill:#d3dfff;fill-opacity:1;fill-rule:nonzero;stroke:none"
         transform="matrix(0.13333333,0,0,-0.13333333,0,2666.6667)" />
      <path
         id="path12"
         d="m 10891.7,4786.7 c 0,-58 -47,-105 -105,-105 -58,0 -105,47 -105,105 0,58 47,105 105,105 58,0 105,-47 105,-105"
         style="fill:#d3dfff;fill-opacity:1;fill-rule:nonzero;stroke:none"
         transform="matrix(0.13333333,0,0,-0.13333333,0,2666.6667)" />
      <path
         id="path13"
         d="m 5306.67,14656.9 c -2.09,-3.7 -4.5,-7.6 -6.74,-11 -4.09,-0.1 -8.65,-0.1 -12.89,0 -920.71,5.8 -762.75,788.9 -321.5,598.6 69.26,475.5 818.95,199.4 341.13,-587.6"
         style="fill:#d3dfff;fill-opacity:1;fill-rule:nonzero;stroke:none"
         transform="matrix(0.13333333,0,0,-0.13333333,0,2666.6667)" />
      <path
         id="path14"
         d="m 13284.6,2109.2 h 3190.8 v 5560 h -3190.8 z"
         style="fill:#708cd5;fill-opacity:1;fill-rule:nonzero;stroke:none"
         transform="matrix(0.13333333,0,0,-0.13333333,0,2666.6667)" />
      <path
         id="path15"
         d="m 13284.6,5006.2 h 3190.8 v 1360.5 h -3190.8 z"
         style="fill:#5874be;fill-opacity:1;fill-rule:nonzero;stroke:none"
         transform="matrix(0.13333333,0,0,-0.13333333,0,2666.6667)" />
      <path
         id="path16"
         d="m 15602.3,6297.7 c 0,-399 -323.4,-722.4 -722.3,-722.4 -398.9,0 -722.3,323.4 -722.3,722.4 0,398.9 323.4,722.3 722.3,722.3 398.9,0 722.3,-323.4 722.3,-722.3"
         style="fill:#ffffff;fill-opacity:1;fill-rule:nonzero;stroke:none"
         transform="matrix(0.13333333,0,0,-0.13333333,0,2666.6667)" />
      <path
         id="path17"
         d="m 17586.7,2111.8 h -5413.4 v 255 c 0,139 112.7,251.7 251.7,251.7 h 4910 c 139,0 251.7,-112.7 251.7,-251.7 v -255"
         style="fill:#1f3c88;fill-opacity:1;fill-rule:nonzero;stroke:none"
         transform="matrix(0.13333333,0,0,-0.13333333,0,2666.6667)" />
      <path
         id="path18"
         d="m 7395.14,6366.7 h 14969.8 V 16525.5 H 7395.14 Z"
         style="fill:#d3dfff;fill-opacity:1;fill-rule:nonzero;stroke:none"
         transform="matrix(0.13333333,0,0,-0.13333333,0,2666.6667)" />
      <path
         id="path19"
         d="M 21781.7,7021.7 H 7978.26 v 9049.2 H 21781.7 V 7021.7"
         style="fill:#ffffff;fill-opacity:1;fill-rule:nonzero;stroke:none"
         transform="matrix(0.13333333,0,0,-0.13333333,0,2666.6667)" />
      <path
         id="path20"
         d="m 10593,13748.4 282.4,-572 c 7.4,-15.1 21.9,-25.6 38.5,-28 l 631.3,-91.8 c 42,-6.1 58.8,-57.7 28.4,-87.3 l -456.8,-445.3 c -12.1,-11.8 -17.6,-28.7 -14.7,-45.3 l 107.8,-628.8 c 7.2,-41.8 -36.7,-73.7 -74.3,-54 l -564.6,296.9 c -15,7.8 -32.8,7.8 -47.7,0 l -564.66,-296.9 c -37.57,-19.7 -81.47,12.2 -74.29,54 l 107.84,628.8 c 2.85,16.6 -2.66,33.5 -14.72,45.3 l -456.83,445.3 c -30.39,29.6 -13.62,81.2 28.37,87.3 l 631.29,91.8 c 16.7,2.4 31.1,12.9 38.6,28 l 282.3,572 c 18.8,38.1 73.1,38.1 91.8,0"
         style="fill:#fbc343;fill-opacity:1;fill-rule:nonzero;stroke:none"
         transform="matrix(0.13333333,0,0,-0.13333333,0,2666.6667)" />
      <path
         id="path21"
         d="m 13579.2,13748.4 282.4,-572 c 7.4,-15.1 21.9,-25.6 38.5,-28 l 631.4,-91.8 c 41.9,-6.1 58.7,-57.7 28.3,-87.3 L 14103,12524 c -12.1,-11.8 -17.6,-28.7 -14.7,-45.3 l 107.8,-628.8 c 7.2,-41.8 -36.7,-73.7 -74.3,-54 l -564.6,296.9 c -15,7.8 -32.8,7.8 -47.7,0 l -564.7,-296.9 c -37.5,-19.7 -81.4,12.2 -74.2,54 l 107.8,628.8 c 2.8,16.6 -2.7,33.5 -14.7,45.3 l -456.9,445.3 c -30.3,29.6 -13.6,81.2 28.4,87.3 l 631.3,91.8 c 16.7,2.4 31.1,12.9 38.6,28 l 282.3,572 c 18.8,38.1 73.1,38.1 91.8,0"
         style="fill:#fbc343;fill-opacity:1;fill-rule:nonzero;stroke:none"
         transform="matrix(0.13333333,0,0,-0.13333333,0,2666.6667)" />
      <path
         id="path22"
         d="m 16565.4,13748.4 282.4,-572 c 7.4,-15.1 21.9,-25.6 38.5,-28 l 631.4,-91.8 c 41.9,-6.1 58.7,-57.7 28.3,-87.3 l -456.8,-445.3 c -12.1,-11.8 -17.6,-28.7 -14.7,-45.3 l 107.8,-628.8 c 7.2,-41.8 -36.7,-73.7 -74.3,-54 l -564.6,296.9 c -15,7.8 -32.8,7.8 -47.7,0 l -564.7,-296.9 c -37.5,-19.7 -81.4,12.2 -74.2,54 l 107.8,628.8 c 2.8,16.6 -2.7,33.5 -14.7,45.3 l -456.9,445.3 c -30.3,29.6 -13.6,81.2 28.4,87.3 l 631.3,91.8 c 16.7,2.4 31.1,12.9 38.6,28 l 282.3,572 c 18.8,38.1 73.1,38.1 91.8,0"
         style="fill:#fbc343;fill-opacity:1;fill-rule:nonzero;stroke:none"
         transform="matrix(0.13333333,0,0,-0.13333333,0,2666.6667)" />
      <path
         id="path23"
         d="m 16973.2,14689.6 h -4186.4 v 470.2 h 4186.4 v -470.2"
         style="fill:#708cd5;fill-opacity:1;fill-rule:nonzero;stroke:none"
         transform="matrix(0.13333333,0,0,-0.13333333,0,2666.6667)" />
      <path
         id="path24"
         d="m 16973.2,10329.1 h -4186.4 v 214.3 h 4186.4 v -214.3"
         style="fill:#d3dfff;fill-opacity:1;fill-rule:nonzero;stroke:none"
         transform="matrix(0.13333333,0,0,-0.13333333,0,2666.6667)" />
      <path
         id="path25"
         d="M 19810.3,7840 H 9949.68 c -86.9,0 -157.34,70.5 -157.34,157.4 V 9428 c 0,86.9 70.44,157.3 157.34,157.3 h 9860.62 c 86.9,0 157.4,-70.4 157.4,-157.3 V 7997.4 c 0,-86.9 -70.5,-157.4 -157.4,-157.4"
         style="fill:#ffffff;fill-opacity:1;fill-rule:nonzero;stroke:none"
         transform="matrix(0.13333333,0,0,-0.13333333,0,2666.6667)" />
      <path
         id="path26"
         d="m 9949.69,9565.3 c -75.73,0 -137.35,-61.6 -137.35,-137.3 V 7997.4 c 0,-75.8 61.62,-137.4 137.35,-137.4 h 9860.61 c 75.8,0 137.4,61.6 137.4,137.4 V 9428 c 0,75.7 -61.6,137.3 -137.4,137.3 z M 19810.3,7820 H 9949.69 c -97.8,0 -177.35,79.6 -177.35,177.4 V 9428 c 0,97.7 79.55,177.3 177.35,177.3 h 9860.61 c 97.8,0 177.4,-79.6 177.4,-177.3 V 7997.4 c 0,-97.8 -79.6,-177.4 -177.4,-177.4"
         style="fill:#708cd5;fill-opacity:1;fill-rule:nonzero;stroke:none"
         transform="matrix(0.13333333,0,0,-0.13333333,0,2666.6667)" />
      <path
         id="path27"
         d="m 19440,9066 h -9120 v 40 h 9120 v -40"
         style="fill:#708cd5;fill-opacity:1;fill-rule:nonzero;stroke:none"
         transform="matrix(0.13333333,0,0,-0.13333333,0,2666.6667)" />
      <path
         id="path28"
         d="m 17000,8706 h -6680 v 40 h 6680 v -40"
         style="fill:#708cd5;fill-opacity:1;fill-rule:nonzero;stroke:none"
         transform="matrix(0.13333333,0,0,-0.13333333,0,2666.6667)" />
      <path
         id="path29"
         d="M 15506.7,8319.3 H 10320 v 40 h 5186.7 v -40"
         style="fill:#708cd5;fill-opacity:1;fill-rule:nonzero;stroke:none"
         transform="matrix(0.13333333,0,0,-0.13333333,0,2666.6667)" />
      <path
         id="path30"
         d="m 6106.56,2883.1 -45.39,-771.7 H 4878.42 l 488.02,385.9 163.56,402.7 576.56,-16.9"
         style="fill:#d3dfff;fill-opacity:1;fill-rule:nonzero;stroke:none"
         transform="matrix(0.13333333,0,0,-0.13333333,0,2666.6667)" />
      <path
         id="path31"
         d="m 5671.97,2341.7 -313.55,137.2 16.05,36.7 313.56,-137.3 -16.06,-36.6"
         style="fill:#102048;fill-opacity:1;fill-rule:nonzero;stroke:none"
         transform="matrix(0.13333333,0,0,-0.13333333,0,2666.6667)" />
      <path
         id="path32"
         d="m 7460,7860 -54,-220 -260.8,-1066.4 -931.6,-3804 H 5328.4 L 6098,7388 l 81.6,488.8 919.6,-12 360.8,-4.8"
         style="fill:#1f3c88;fill-opacity:1;fill-rule:nonzero;stroke:none"
         transform="matrix(0.13333333,0,0,-0.13333333,0,2666.6667)" />
      <path
         id="path33"
         d="m 7428.81,2883.1 45.39,-771.7 h 1182.75 l -488.01,385.9 -102.15,397.2 -637.98,-11.4"
         style="fill:#d3dfff;fill-opacity:1;fill-rule:nonzero;stroke:none"
         transform="matrix(0.13333333,0,0,-0.13333333,0,2666.6667)" />
      <path
         id="path34"
         d="m 7860.64,2354.7 -14.6,37.3 315.58,123.9 14.61,-37.3 -315.59,-123.9"
         style="fill:#102048;fill-opacity:1;fill-rule:nonzero;stroke:none"
         transform="matrix(0.13333333,0,0,-0.13333333,0,2666.6667)" />
      <path
         id="path35"
         d="m 8222.4,2761.6 h -942 l -135.2,3812 -36,1009.2 -10,282 -0.4,12 648.8,-6.8 406.8,-4.4 68,-5104"
         style="fill:#1f3c88;fill-opacity:1;fill-rule:nonzero;stroke:none"
         transform="matrix(0.13333333,0,0,-0.13333333,0,2666.6667)" />
      <path
         id="path36"
         d="m 6926.31,5516.2 -39.3,7.6 269.22,1399.9 346.5,69.2 7.86,-39.2 -320.14,-64 -264.14,-1373.5"
         style="fill:#ffffff;fill-opacity:1;fill-rule:nonzero;stroke:none"
         transform="matrix(0.13333333,0,0,-0.13333333,0,2666.6667)" />
      <path
         id="path37"
         d="M 7049.81,10407.7 8290.66,10173.2 8220,9870 8334.24,7896.9 c 1,-110.9 -88.95,-201.2 -199.88,-200.7 l -1850.98,9.3 c -112.51,0.6 -202.15,94.3 -197.74,206.7 l -32.31,1781.1 996.48,714.4"
         style="fill:#ee6f57;fill-opacity:1;fill-rule:nonzero;stroke:none"
         transform="matrix(0.13333333,0,0,-0.13333333,0,2666.6667)" />
      <path
         id="path38"
         d="m 8481.57,10569.1 c -105.93,68.1 -75.66,393.5 -158.89,389.7 -83.23,-3.8 -90.8,-230.8 -79.45,-276.2 11.35,-45.4 34.05,-185.3 34.05,-185.3 l 204.29,71.8"
         style="fill:#ffbc96;fill-opacity:1;fill-rule:nonzero;stroke:none"
         transform="matrix(0.13333333,0,0,-0.13333333,0,2666.6667)" />
      <path
         id="path39"
         d="m 7740,9490 1200,-260 c 320,-60 544.09,-73.9 759.72,90.7 L 7997.33,10153 7740,9490"
         style="fill:#ee6f57;fill-opacity:1;fill-rule:nonzero;stroke:none"
         transform="matrix(0.13333333,0,0,-0.13333333,0,2666.6667)" />
      <path
         id="path40"
         d="m 5597.1,8739.4 628,631.7 824.71,1036.6 -826.66,-205.1 c -117.04,-29 -222.61,-92.7 -302.94,-182.6 L 4862.2,8835.5 c -86.29,-118.8 -81.31,-291.7 44.59,-412.1 l 543.72,-358.5 403.76,475.8 -257.17,198.7"
         style="fill:#ee6f57;fill-opacity:1;fill-rule:nonzero;stroke:none"
         transform="matrix(0.13333333,0,0,-0.13333333,0,2666.6667)" />
      <path
         id="path41"
         d="m 8481.57,10569.1 c -310.22,166.5 -370.74,174.1 -476.67,60.6 -64.73,-69.4 -118.16,-167 -139.57,-249.7 -16.82,-65 9.8,-133.6 63.11,-174.3 l 68.89,-52.7 358.55,-227.4 346.1,508.1 c -89.84,58.9 -166.6,106.6 -220.41,135.4"
         style="fill:#ffbc96;fill-opacity:1;fill-rule:nonzero;stroke:none"
         transform="matrix(0.13333333,0,0,-0.13333333,0,2666.6667)" />
      <path
         id="path42"
         d="m 9674.84,9750.3 c -244.34,177.8 -679.27,491 -972.86,683.4 l -346.1,-508.1 1004.52,-637.1 c 143.32,-90.9 333.91,-34.2 404.14,120.3 54.91,120.8 17.59,263.4 -89.7,341.5"
         style="fill:#ee6f57;fill-opacity:1;fill-rule:nonzero;stroke:none"
         transform="matrix(0.13333333,0,0,-0.13333333,0,2666.6667)" />
      <path
         id="path43"
         d="m 6471,8374.3 c 287.52,158.9 -26.48,168.3 -408.58,5.7 l -208.15,160.7 -403.76,-475.8 268.08,-176.8 c 88.61,-58.4 200.82,-67.4 297.52,-23.6 113.92,51.5 256.96,114.2 303.57,125.8 105.92,26.5 336.69,37.8 279.94,105.9 l -98.36,26.5 c 0,0 185.38,49.2 158.9,90.8 -26.49,41.6 -213.75,32.2 -213.75,32.2 0,0 242.12,77.5 247.79,132.4 4.44,42.9 -223.2,-3.8 -223.2,-3.8"
         style="fill:#ffbc96;fill-opacity:1;fill-rule:nonzero;stroke:none"
         transform="matrix(0.13333333,0,0,-0.13333333,0,2666.6667)" />
      <path
         id="path44"
         d="m 6179.71,8283 c -4.4,0 -8.42,2.9 -9.65,7.3 -1.47,5.4 1.68,10.8 6.99,12.3 l 344.26,94.6 c 5.41,1.4 10.84,-1.7 12.3,-7 1.47,-5.4 -1.68,-10.8 -6.99,-12.3 l -344.26,-94.6 -2.65,-0.3"
         style="fill:#e8947d;fill-opacity:1;fill-rule:nonzero;stroke:none"
         transform="matrix(0.13333333,0,0,-0.13333333,0,2666.6667)" />
      <path
         id="path45"
         d="m 6202.38,8063.6 c -4.8,0 -9.04,3.4 -9.84,8.3 -0.9,5.5 2.79,10.6 8.24,11.5 l 298.87,49.2 c 5.37,0.8 10.58,-2.8 11.48,-8.2 0.9,-5.5 -2.79,-10.7 -8.24,-11.5 l -298.87,-49.2 -1.64,-0.1"
         style="fill:#e8947d;fill-opacity:1;fill-rule:nonzero;stroke:none"
         transform="matrix(0.13333333,0,0,-0.13333333,0,2666.6667)" />
      <path
         id="path46"
         d="m 6213.73,8188.4 c -4.78,0 -9.02,3.4 -9.84,8.3 -0.92,5.4 2.77,10.6 8.22,11.5 l 272.38,45.5 c 5.39,0.8 10.59,-2.8 11.51,-8.3 0.91,-5.4 -2.78,-10.6 -8.23,-11.5 l -272.38,-45.4 -1.66,-0.1"
         style="fill:#e8947d;fill-opacity:1;fill-rule:nonzero;stroke:none"
         transform="matrix(0.13333333,0,0,-0.13333333,0,2666.6667)" />
      <path
         id="path47"
         d="m 9079.98,9418.3 c -2.89,0 -5.84,0.8 -8.42,2.6 l -724.12,492.3 c -6.85,4.7 -8.63,13.9 -3.96,20.8 4.63,6.9 13.94,8.7 20.84,4 l 724.12,-492.3 c 6.85,-4.6 8.63,-13.9 3.96,-20.8 -2.89,-4.3 -7.61,-6.6 -12.42,-6.6"
         style="fill:#6f3428;fill-opacity:1;fill-rule:nonzero;stroke:none"
         transform="matrix(0.13333333,0,0,-0.13333333,0,2666.6667)" />
      <path
         id="path48"
         d="m 8279.98,8638.3 c -7.85,0 -14.45,6.2 -14.96,14.1 l -66.66,1066.7 c -0.51,8.2 5.78,15.4 14.04,15.9 7.99,1.1 15.39,-5.8 15.9,-14.1 l 66.68,-1066.6 c 0.51,-8.3 -5.78,-15.4 -14.04,-15.9 l -0.96,-0.1"
         style="fill:#6f3428;fill-opacity:1;fill-rule:nonzero;stroke:none"
         transform="matrix(0.13333333,0,0,-0.13333333,0,2666.6667)" />
      <path
         id="path49"
         d="m 6080,8838.3 c -8.16,0 -14.84,6.5 -15,14.7 l -13.34,720 c -0.16,8.3 6.45,15.2 14.73,15.3 7.57,0.3 15.09,-6.4 15.27,-14.7 l 13.34,-720 c 0.16,-8.3 -6.45,-15.1 -14.73,-15.3 H 6080"
         style="fill:#6f3428;fill-opacity:1;fill-rule:nonzero;stroke:none"
         transform="matrix(0.13333333,0,0,-0.13333333,0,2666.6667)" />
      <path
         id="path50"
         d="m 5293.32,8685 c -7.42,0 -13.87,5.5 -14.86,13.1 -1.06,8.2 4.74,15.7 12.95,16.8 l 303.77,39.4 c 8.26,1 15.72,-4.8 16.81,-13 1.06,-8.2 -4.74,-15.8 -12.95,-16.8 l -303.77,-39.4 -1.95,-0.1"
         style="fill:#6f3428;fill-opacity:1;fill-rule:nonzero;stroke:none"
         transform="matrix(0.13333333,0,0,-0.13333333,0,2666.6667)" />
      <path
         id="path51"
         d="m 7177.03,9817.9 c -102.07,0 -207.65,50.8 -313.98,151.2 -6.04,5.7 -6.31,15.2 -0.61,21.2 5.67,6 15.2,6.3 21.19,0.6 103.85,-98 205.57,-146.6 302.58,-142.9 94.86,3.2 190,55.5 282.79,155.5 5.63,6.1 15.12,6.5 21.2,0.8 6.07,-5.6 6.44,-15.1 0.8,-21.2 -98.44,-106.1 -200.65,-161.6 -303.79,-165.1 -3.38,-0.1 -6.78,-0.1 -10.18,-0.1"
         style="fill:#6f3428;fill-opacity:1;fill-rule:nonzero;stroke:none"
         transform="matrix(0.13333333,0,0,-0.13333333,0,2666.6667)" />
      <path
         id="path52"
         d="m 7419.47,10803.8 v -457.9 c 0,-139.5 -113.06,-252.5 -252.5,-252.5 -139.79,0 -252.84,113 -252.84,252.5 v 457.9 h 505.34"
         style="fill:#ffbc96;fill-opacity:1;fill-rule:nonzero;stroke:none"
         transform="matrix(0.13333333,0,0,-0.13333333,0,2666.6667)" />
      <path
         id="path53"
         d="m 7419.47,10649.7 v -302.8 c -217.9,25.7 -349.5,188.3 -434.02,370.6 l 434.02,-67.8"
         style="fill:#e8947d;fill-opacity:1;fill-rule:nonzero;stroke:none"
         transform="matrix(0.13333333,0,0,-0.13333333,0,2666.6667)" />
      <path
         id="path54"
         d="m 7559.2,10778.4 c -9.2,-111.6 -45.6,-204 -139.6,-235.6 -12.4,-4.4 -25.2,-7.6 -39.6,-9.6 -160.8,-22.8 -274.4,31.6 -352.01,102.8 -38.79,35.6 -68.79,75.2 -91.19,111.2 -8.8,14 -16.4,27.6 -22.8,40 -16,31.2 -25.6,56 -29.6,68 -2,5.2 -2.8,8 -2.8,8 l -1.6,120 -4.4,290 407.2,130.8 247.2,-154 c 0.8,-24 2.8,-50.8 6,-80.4 7.61,-77.2 20.4,-170 24.8,-261.2 2,-44.4 2.4,-88.8 -1.6,-130"
         style="fill:#ffbc96;fill-opacity:1;fill-rule:nonzero;stroke:none"
         transform="matrix(0.13333333,0,0,-0.13333333,0,2666.6667)" />
      <path
         id="path55"
         d="m 6943.96,10869 c -20.11,111.7 -22.15,217.2 5.95,312.1 212.04,128.8 486.85,-26.3 629.13,-12.1 23.53,2.4 45,15.8 57.18,36.1 242.61,403.8 -512.32,613.9 -867.6,130.5 -177.93,-64.9 -118.88,-303.1 35.66,-499.3 l 139.68,32.7"
         style="fill:#102048;fill-opacity:1;fill-rule:nonzero;stroke:none"
         transform="matrix(0.13333333,0,0,-0.13333333,0,2666.6667)" />
      <path
         id="path56"
         d="m 6999.02,10894.7 c 20.24,-65 -11.62,-132.8 -71.17,-151.3 -59.56,-18.5 -124.25,19.2 -144.49,84.2 -20.24,65 11.63,132.8 71.18,151.3 59.55,18.6 124.24,-19.1 144.48,-84.2"
         style="fill:#ffbc96;fill-opacity:1;fill-rule:nonzero;stroke:none"
         transform="matrix(0.13333333,0,0,-0.13333333,0,2666.6667)" />
      <path
         id="path57"
         d="m 7428.89,10958.7 c 3.39,-17.3 17.79,-29 32.18,-26.2 14.38,2.8 23.3,19.1 19.91,36.4 -3.39,17.3 -17.8,29 -32.18,26.2 -14.39,-2.8 -23.3,-19.1 -19.91,-36.4"
         style="fill:#102048;fill-opacity:1;fill-rule:nonzero;stroke:none"
         transform="matrix(0.13333333,0,0,-0.13333333,0,2666.6667)" />
      <path
         id="path58"
         d="m 7221.16,10949.8 c 3.39,-17.3 17.8,-29 32.18,-26.2 14.38,2.8 23.3,19.1 19.91,36.4 -3.39,17.3 -17.8,29 -32.18,26.2 -14.39,-2.8 -23.3,-19.1 -19.91,-36.4"
         style="fill:#102048;fill-opacity:1;fill-rule:nonzero;stroke:none"
         transform="matrix(0.13333333,0,0,-0.13333333,0,2666.6667)" />
      <path
         id="path59"
         d="m 7363.13,10793.5 c -5.12,0 -9.48,3.9 -9.95,9.2 -0.47,5.4 3.6,10.3 9.11,10.8 0.37,0 37.36,3.5 57.01,24.9 0.84,1 1.68,2.3 1.44,5.1 -1.5,17.3 -34.82,49 -55.49,64.9 -4.37,3.4 -5.17,9.7 -1.81,14.1 3.4,4.4 9.61,5.1 14.04,1.8 6.17,-4.8 60.45,-47.5 63.18,-79.1 0.67,-7.8 -1.62,-14.8 -6.64,-20.3 -24.96,-27.2 -68.2,-31.2 -70.02,-31.3 l -0.87,-0.1"
         style="fill:#e8947d;fill-opacity:1;fill-rule:nonzero;stroke:none"
         transform="matrix(0.13333333,0,0,-0.13333333,0,2666.6667)" />
      <path
         id="path60"
         d="m 7426.44,10741 c -27.61,-98.3 -108.51,-73.1 -151.98,-3.1 l 151.98,3.1"
         style="fill:#ffffff;fill-opacity:1;fill-rule:nonzero;stroke:none"
         transform="matrix(0.13333333,0,0,-0.13333333,0,2666.6667)" />
      <path
         id="path61"
         d="m 7386.98,11062.8 c -1.73,-28.5 39.04,-20.9 55.06,-21 33.03,-0.2 64.49,10.3 64.56,20.1 0.07,9.8 -26.64,17.9 -59.67,18.2 -33.03,0.2 -58.7,3.2 -59.95,-17.3"
         style="fill:#102048;fill-opacity:1;fill-rule:nonzero;stroke:none"
         transform="matrix(0.13333333,0,0,-0.13333333,0,2666.6667)" />
      <path
         id="path62"
         d="m 7280.41,11065.8 c 7.93,-31 -36.81,-35.3 -53.72,-40.5 -34.87,-10.7 -70.4,-8.9 -72.57,1.9 -2.17,10.8 24.33,28.2 59.21,38.8 34.87,10.7 61.36,22.1 67.08,-0.2"
         style="fill:#102048;fill-opacity:1;fill-rule:nonzero;stroke:none"
         transform="matrix(0.13333333,0,0,-0.13333333,0,2666.6667)" />
      <path
         id="path63"
         d="m 7155.83,10753.3 c -36.36,0 -65.83,29.5 -65.83,65.9 0,36.3 29.47,65.8 65.83,65.8 36.36,0 65.84,-29.5 65.84,-65.8 0,-36.4 -29.48,-65.9 -65.84,-65.9"
         style="fill:#faa583;fill-opacity:1;fill-rule:nonzero;stroke:none"
         transform="matrix(0.13333333,0,0,-0.13333333,0,2666.6667)" />
      <path
         id="path64"
         d="m 7559.2,10778.4 c -32,4.4 -56.8,31.6 -56.8,64.8 0,33.6 25.6,61.6 58.4,65.2 0.91,-20.1 1.49,-40.2 1.47,-60.1 -0.01,-23.9 -0.88,-47.4 -3.07,-69.9 v 0"
         style="fill:#faa583;fill-opacity:1;fill-rule:nonzero;stroke:none"
         transform="matrix(0.13333333,0,0,-0.13333333,0,2666.6667)" />
      <path
         id="path65"
         d="m 6907.5,10817.5 c -5.53,0 -10,4.5 -10,10 0,26.1 -6.13,44.8 -17.71,54.1 -11.45,9.3 -26.84,8.5 -37.7,6.1 -5.29,-1 -10.7,2.3 -11.88,7.7 -1.15,5.4 2.29,10.7 7.7,11.9 21.66,4.6 40.55,1.2 54.45,-10.1 16.68,-13.5 25.14,-36.9 25.14,-69.7 0,-5.5 -4.47,-10 -10,-10"
         style="fill:#102048;fill-opacity:1;fill-rule:nonzero;stroke:none"
         transform="matrix(0.13333333,0,0,-0.13333333,0,2666.6667)" />
      <path
         id="path66"
         d="m 4930.04,11232.4 c 167.46,180.7 269.96,422.4 269.96,688.2 0,559.3 -453.42,1012.7 -1012.74,1012.7 -559.33,0 -1012.75,-453.4 -1012.75,-1012.7 0,-559.3 453.42,-1012.7 1012.75,-1012.7 143.69,0 280.29,30 404.1,84 l 540.55,-271.9 -201.87,512.4"
         style="fill:#c6eae9;fill-opacity:1;fill-rule:nonzero;stroke:none"
         transform="matrix(0.13333333,0,0,-0.13333333,0,2666.6667)" />
      <path
         id="path67"
         d="m 4147.46,11552.3 -351.7,488.8 c -12.91,17.9 -8.83,42.9 9.1,55.8 17.91,13 42.93,8.8 55.82,-9.1 l 276.86,-384.8 391.11,729 c 10.47,19.5 34.69,26.8 54.16,16.3 19.48,-10.4 26.78,-34.7 16.35,-54.1 l -451.7,-841.9"
         style="fill:#ffffff;fill-opacity:1;fill-rule:nonzero;stroke:none"
         transform="matrix(0.13333333,0,0,-0.13333333,0,2666.6667)" />
      <path
         id="path68"
         d="M 22949.9,5924.7 22269,5607 l 96.8,-2780.9 660.1,-90.8 -76,3189.4"
         style="fill:#ffbc96;fill-opacity:1;fill-rule:nonzero;stroke:none"
         transform="matrix(0.13333333,0,0,-0.13333333,0,2666.6667)" />
      <path
         id="path69"
         d="m 22365.8,2826.1 9.1,-260.7 -590.2,-454 h 1256 l -14.8,623.9 -660.1,90.8"
         style="fill:#d3dfff;fill-opacity:1;fill-rule:nonzero;stroke:none"
         transform="matrix(0.13333333,0,0,-0.13333333,0,2666.6667)" />
      <path
         id="path70"
         d="m 22586.6,2420.2 -221.7,127.8 20,34.7 221.7,-127.9 -20,-34.6"
         style="fill:#102048;fill-opacity:1;fill-rule:nonzero;stroke:none"
         transform="matrix(0.13333333,0,0,-0.13333333,0,2666.6667)" />
      <path
         id="path71"
         d="m 23347.2,5353.6 -56.8,306.4 -783.1,-249.6 76.2,-374.2 c 31.1,-152.3 123.7,-285 255.9,-366.7 115.2,-71.2 252.2,-98.4 385.9,-76.8 l 1700.1,274.7 119.2,645.9 -1697.4,-159.7"
         style="fill:#ffbc96;fill-opacity:1;fill-rule:nonzero;stroke:none"
         transform="matrix(0.13333333,0,0,-0.13333333,0,2666.6667)" />
      <path
         id="path72"
         d="m 23133.6,4569.7 c -156.8,0 -298.4,69.9 -413.7,205.5 -103.4,121.5 -148.7,250.7 -150.6,256.1 -2.7,7.8 1.5,16.4 9.3,19.1 7.7,2.6 16.4,-1.5 19.1,-9.3 1.8,-5.1 181.5,-510 625,-433.6 8.4,1.1 15.9,-4.2 17.3,-12.3 1.4,-8.2 -4.1,-15.9 -12.2,-17.3 -32,-5.5 -63.4,-8.2 -94.2,-8.2"
         style="fill:#e8947d;fill-opacity:1;fill-rule:nonzero;stroke:none"
         transform="matrix(0.13333333,0,0,-0.13333333,0,2666.6667)" />
      <path
         id="path73"
         d="m 25741.9,4400.3 -102.2,1168.9 -595.1,-55.9 -119.2,-645.9 339.8,54.9 476.7,-522"
         style="fill:#d3dfff;fill-opacity:1;fill-rule:nonzero;stroke:none"
         transform="matrix(0.13333333,0,0,-0.13333333,0,2666.6667)" />
      <path
         id="path74"
         d="m 25284,4915.5 -37.6,13.7 106.3,290 37.6,-13.7 -106.3,-290"
         style="fill:#102048;fill-opacity:1;fill-rule:nonzero;stroke:none"
         transform="matrix(0.13333333,0,0,-0.13333333,0,2666.6667)" />
      <path
         id="path75"
         d="m 23205.3,7895.8 c 323.4,-419.9 175.9,-817.1 73.8,-1293.8 l 307.6,-1228.7 -1567.4,-371.5 -102.2,2695.4 635.6,346.2 652.6,-147.6"
         style="fill:#ee6f57;fill-opacity:1;fill-rule:nonzero;stroke:none"
         transform="matrix(0.13333333,0,0,-0.13333333,0,2666.6667)" />
      <path
         id="path76"
         d="m 22131.2,10610.4 c 0,0 -181.7,-109.2 -142.2,-153.1 39.5,-43.9 122.3,-59.2 122.3,-59.2 l 19.9,212.3"
         style="fill:#e8947d;fill-opacity:1;fill-rule:nonzero;stroke:none"
         transform="matrix(0.13333333,0,0,-0.13333333,0,2666.6667)" />
      <path
         id="path77"
         d="m 22706.5,10459.3 -44.8,-855.4 -469.7,24.6 44.8,855.4 469.7,-24.6"
         style="fill:#ffbc96;fill-opacity:1;fill-rule:nonzero;stroke:none"
         transform="matrix(0.13333333,0,0,-0.13333333,0,2666.6667)" />
      <path
         id="path78"
         d="m 22615,10230.8 c -97,-150.5 -234.6,-258.1 -408,-316.9 l 22.7,434.5 385.3,-117.6"
         style="fill:#e8947d;fill-opacity:1;fill-rule:nonzero;stroke:none"
         transform="matrix(0.13333333,0,0,-0.13333333,0,2666.6667)" />
      <path
         id="path79"
         d="m 22147.1,10787.8 c 0,0 -198.9,-605.6 71.6,-650.5 270.4,-45 396.4,93.6 396.4,93.6 l 90.9,391.3 -188.7,260.6 -370.2,-95"
         style="fill:#ffbc96;fill-opacity:1;fill-rule:nonzero;stroke:none"
         transform="matrix(0.13333333,0,0,-0.13333333,0,2666.6667)" />
      <path
         id="path80"
         d="m 22587.8,10454.5 c -30.7,-53.7 -93.6,-75.6 -140.5,-48.8 -46.9,26.8 -60,92.1 -29.3,145.8 30.7,53.7 93.6,75.6 140.5,48.8 46.9,-26.8 60,-92.1 29.3,-145.8"
         style="fill:#ffbc96;fill-opacity:1;fill-rule:nonzero;stroke:none"
         transform="matrix(0.13333333,0,0,-0.13333333,0,2666.6667)" />
      <path
         id="path81"
         d="m 22468.7,10500.4 c -53.3,61.8 -82.9,147.8 -99.3,247.2 -646.7,-208.2 -478.9,476 -143,293.4 496.5,323.8 984.2,-403.5 475.9,-742 -70.3,139.1 -148.7,200.7 -233.6,201.4"
         style="fill:#102048;fill-opacity:1;fill-rule:nonzero;stroke:none"
         transform="matrix(0.13333333,0,0,-0.13333333,0,2666.6667)" />
      <path
         id="path82"
         d="m 22748.3,11002.6 c 332.8,202.6 861.2,-53.1 547,-953.8 -520.1,360.8 -281.9,757.8 -547,953.8"
         style="fill:#102048;fill-opacity:1;fill-rule:nonzero;stroke:none"
         transform="matrix(0.13333333,0,0,-0.13333333,0,2666.6667)" />
      <path
         id="path83"
         d="m 20039.5,12554.7 208.6,-620.7 c 5.5,-16.6 18.9,-29.4 35.8,-34.2 l 631.2,-180.6 c 42.5,-12.2 52.5,-67.9 16.9,-94.1 l -527.6,-389 c -14.2,-10.5 -22.3,-27.2 -21.7,-44.8 l 22.6,-653.7 c 1.6,-44.1 -48.1,-70.8 -84.1,-45.3 l -535.1,380.1 c -14.3,10.1 -32.6,12.6 -49,6.7 l -617.7,-223.6 c -41.5,-15.1 -82.2,24.1 -68.9,66.2 l 197.3,623.7 c 5.4,16.7 2,35 -8.8,48.9 l -403.9,515.4 c -27.3,34.8 -2.7,85.8 41.5,86.2 l 656.9,5.8 c 17.5,0.1 33.8,8.9 43.6,23.3 l 367.8,542.6 c 24.7,36.5 80.5,28.8 94.6,-12.9"
         style="fill:#fbc343;fill-opacity:1;fill-rule:nonzero;stroke:none"
         transform="matrix(0.13333333,0,0,-0.13333333,0,2666.6667)" />
      <path
         id="path84"
         d="m 20875.8,11964.5 c -69.7,24.1 57.3,-431.3 93.1,-555.4 5.4,-18.5 -1.5,-38.4 -17.1,-49.7 -22.6,-16.4 -54.5,-9.1 -67.5,15.5 -54.1,102.7 -183.4,336.1 -228.3,312.7 -49.7,-26.2 72.8,-362.9 240.9,-764.1 l 403.6,305.2 c -213.7,401 -394.3,725.3 -424.7,735.8"
         style="fill:#ffbc96;fill-opacity:1;fill-rule:nonzero;stroke:none"
         transform="matrix(0.13333333,0,0,-0.13333333,0,2666.6667)" />
      <path
         id="path85"
         d="m 22102.9,9683.6 c 0,0 -447,878.5 -802.4,1545.1 l -403.6,-305.2 C 21130,10270 21470,9410 21470,9410 l 632.9,273.6"
         style="fill:#102048;fill-opacity:1;fill-rule:nonzero;stroke:none"
         transform="matrix(0.13333333,0,0,-0.13333333,0,2666.6667)" />
      <path
         id="path86"
         d="m 19295.5,10838.2 c -22.7,-34.1 144.7,-278.1 144.7,-278.1 -259.1,118.7 -491.9,217.8 -588.4,258.3 -23.9,10.1 -51.4,-7.5 -50.5,-33.5 11,-315.3 545.2,-607.8 545.2,-607.8 l 149.8,-227.1 332.5,485.9 c -262.8,260.5 -495,459.8 -533.3,402.3"
         style="fill:#ffbc96;fill-opacity:1;fill-rule:nonzero;stroke:none"
         transform="matrix(0.13333333,0,0,-0.13333333,0,2666.6667)" />
      <path
         id="path87"
         d="m 22924.7,9830 c -128,72.4 -292.6,110.1 -499.3,111.6 -146.4,1.1 -292.3,-18.1 -434.8,-51.5 L 20646,9547.2 c -95.8,123.8 -481.5,556.1 -817.2,888.7 l -332.5,-485.9 604.1,-916.1 c 74.3,-112.7 182.5,-198.8 308.9,-246 120.9,-45.1 252.7,-52.4 377.8,-20.9 l 891.7,224.1 238.3,-1293.9 1288.2,198.6 c 175.6,993.5 23.5,1762.2 -280.6,1934.2"
         style="fill:#1f3c88;fill-opacity:1;fill-rule:nonzero;stroke:none"
         transform="matrix(0.13333333,0,0,-0.13333333,0,2666.6667)" />
      <path
         id="path88"
         d="m 25004.5,9792.4 c -167.5,180.7 -270,422.4 -270,688.2 0,559.3 453.4,1012.7 1012.8,1012.7 559.3,0 1012.7,-453.4 1012.7,-1012.7 0,-559.3 -453.4,-1012.7 -1012.7,-1012.7 -143.7,0 -280.3,30.1 -404.2,84 l -540.5,-271.9 201.9,512.4"
         style="fill:#c6eae9;fill-opacity:1;fill-rule:nonzero;stroke:none"
         transform="matrix(0.13333333,0,0,-0.13333333,0,2666.6667)" />
      <path
         id="path89"
         d="m 25685,10004.6 -351.8,488.9 c -12.9,17.9 -8.8,42.9 9.1,55.8 18,12.9 43,8.8 55.9,-9.1 l 276.8,-384.8 391.2,728.9 c 10.4,19.5 34.6,26.9 54.1,16.4 19.5,-10.5 26.8,-34.7 16.3,-54.2 l -451.6,-841.9"
         style="fill:#ffffff;fill-opacity:1;fill-rule:nonzero;stroke:none"
         transform="matrix(0.13333333,0,0,-0.13333333,0,2666.6667)" />
      <path
         id="path90"
         d="M 26867.9,2090 H 3132.17 v 40 H 26867.9 v -40"
         style="fill:#102048;fill-opacity:1;fill-rule:nonzero;stroke:none"
         transform="matrix(0.13333333,0,0,-0.13333333,0,2666.6667)" />
    </g>
  </g>
</svg>
